<?xml version="1.0" encoding="utf-8"?>
<!-- Generator: Adobe Illustrator 16.0.0, SVG Export Plug-In . SVG Version: 6.00 Build 0)  -->
<!DOCTYPE svg PUBLIC "-//W3C//DTD SVG 1.1//EN" "http://www.w3.org/Graphics/SVG/1.1/DTD/svg11.dtd">
<svg version="1.1"
	 id="svg2" sodipodi:docname="Location_of_Long_Island_1983DD.svg" inkscape:version="0.48.0 r9654" xmlns:dc="http://purl.org/dc/elements/1.1/" xmlns:cc="http://creativecommons.org/ns#" xmlns:rdf="http://www.w3.org/1999/02/22-rdf-syntax-ns#" xmlns:svg="http://www.w3.org/2000/svg" xmlns:sodipodi="http://sodipodi.sourceforge.net/DTD/sodipodi-0.dtd" xmlns:inkscape="http://www.inkscape.org/namespaces/inkscape"
	 xmlns="http://www.w3.org/2000/svg" xmlns:xlink="http://www.w3.org/1999/xlink" x="0px" y="0px" width="775.632px"
	 height="342.896px" viewBox="0 0 775.632 342.896" enable-background="new 0 0 775.632 342.896" xml:space="preserve">
<rect fill-rule="evenodd" clip-rule="evenodd" fill="#4169E1" width="776.02" height="342.896"/>
<path fill-rule="evenodd" clip-rule="evenodd" fill="#84FF24" d="M67.48,0.037c104.969,0,209.938,0,314.907,0
	c-0.525,2.465-1.103,4.889-2.659,6.984c-0.905,1.219-1.796,1.608-3.399,1.35c-2.025-0.326-4.594-2.03-5.818,1.521
	c-1.069-1.005-1.962-1.837-2.849-2.677c-1.879-1.778-1.88-1.781-3.692,0.191c-1.18,1.285-2.415,2.525-3.512,3.878
	c-0.841,1.036-1.763,1.667-3.131,1.422c-0.999-0.179-1.515,0.438-2.037,1.142c-1.771,2.385-3.568,4.75-5.359,7.119
	c-2.497,3.303-3.548,3.364-6.491,0.516c-0.876-0.848-1.566-1.953-2.814-2.469c0,1.473,0,2.803,0,4.426
	c1.524-1.479,2.487-0.664,3.423,0.471c0.491,0.595,1.053,1.142,1.639,1.646c0.615,0.529,0.866,1.104,0.502,1.865
	c-0.797,1.664-1.078,3.146,1.285,3.719c0.059,0.014,0.108,0.068,0.159,0.107c0.434,0.332,0.763,0.75,0.658,1.314
	c-0.146,0.781-0.817,0.475-1.262,0.473c-2.627-0.006-5.105,0.664-7.532,1.585c-0.601,0.228-1.152,0.55-1.843,0.253
	c-4.584-1.971-9.176-3.924-13.899-5.939c1.011-0.703,1.895-1.319,2.912-2.027c-2.03-1.662-3.759-3.539-6.255-4.377
	c0.115,0.484,0.334,0.852,0.597,1.184c0.771,0.97,2.305,2.002-0.303,2.588c-0.578,0.131-0.581,0.672-0.509,1.111
	c0.246,1.499-0.41,2.01-1.825,1.762c-2.783-0.488-5.027,0.471-6.878,2.53c-0.299,0.333-0.691,0.581-1.035,0.876
	c-1.701,1.459-1.7,1.46-2.844-0.672c-0.36,1.153-0.704,2.188-1.001,3.234c-0.209,0.735-0.548,1.27-1.382,1.402
	c-3.004,0.482-4.347,2.34-4.354,5.305c-0.001,0.377-0.201,0.748-0.255,1.13c-0.071,0.503-0.229,0.84-0.829,0.837
	c-1.714-0.01-2.967,1.043-3.939,2.193c-1.385,1.636-2.892,1.871-4.766,1.215c-0.666-0.232-1.383-0.313-2.064-0.508
	c-0.334-0.095-0.813-0.004-0.897-0.542c-0.291-1.864-1.946-2.004-3.234-2.222c-1.301-0.221-3.438,0.316-3.444,1.37
	c-0.019,3.169-2.789,2.95-4.316,4.216c-0.241,0.198-0.653,0.399-0.881,0.127c-1.263-1.51-2.271-0.18-3.363,0.251
	c-1.725,0.681-3.188,2.368-5.355,1.33c-1.725-0.826-2.93-0.515-3.513,1.521c-0.201,0.701-0.899,1.248-1.299,1.909
	c-0.469,0.772-0.909,0.843-1.691,0.328c-2.134-1.406-4.31-2.745-6.021-4.712c-2.167,2.955-3.107,4.244,1.436,5.631
	c0.061,0.02,0.124,0.037,0.182,0.064c0.773,0.365,1.312,1.051,1.225,1.819c-0.109,0.956-1.091,0.556-1.581,0.462
	c-3.103-0.593-5.165,0.68-6.535,3.381c-0.173,0.341-0.501,0.603-0.672,0.943c-0.672,1.338-1.707,1.91-3.144,1.403
	c-1.938-0.683-2.352,0.335-2.339,1.944c0.003,0.387-0.096,0.775-0.072,1.159c0.111,1.764-0.708,1.944-2.207,1.515
	c-2.74-0.787-2.759-0.721-3.8,2c-0.046,0.121-0.109,0.238-0.133,0.363c-0.311,1.588-1,2.396-2.741,0.992
	c0,1.317-0.075,2.346,0.019,3.359c0.122,1.316-0.282,1.782-1.589,1.289c-3.291-1.242-6.069-1-7.627,2.696
	c-0.026,0.062-0.224,0.05-0.341,0.071c-0.864-4.341-0.864-4.341-3.157-4.314c0.083,1.121,1.269,2.068,0.69,3.26
	c-1.164,2.398-2.446,4.74-3.844,7.422c-0.663-1.639-1.181-2.917-1.754-4.332c-0.585,0.832-1.082,1.537-1.6,2.272
	c-2.177-3.336-2.122-3.255-5.299-1.108c-1.191,0.805-0.371,1.998-0.975,2.953c-0.379-0.282-0.746-0.455-0.971-0.74
	c-1.254-1.585-2.266-1.018-3.602,0.064c-1.594,1.289-0.238,2.117,0.31,2.836c1.105,1.449,0.708,2.658-0.224,3.844
	c-1.008,1.281-2.34,2.143-4.086,2.69c0-1.235,0-2.313,0-3.39c0-3.187,0-3.188-3.146-3.896c-0.087-0.02-0.201,0.082-0.3,0.127
	c0.179,1.874-0.599,3.111-2.288,4.008c-2.597,1.377-4.515,3.627-6.658,5.58c-0.473,0.432-0.396,1.064-0.439,1.641
	c-0.217,2.858-0.218,2.858-2.988,2.857c-2.851,0-2.851,0-2.379-2.973c0.929,0.277,1.845,0.562,2.769,0.821
	c0.331,0.094,0.618,0.37,1.009-0.076c1.478-1.683,1.716-5.409,0.342-7.493c-1.042,1.17-2.063,2.32-3.089,3.467
	c-3.056,3.407-3.292,3.367-5.354-0.969c2.394-0.266,1.766-1.722,1.285-3.176c-0.226-0.681-0.26-1.4-1.292-1.307
	c-1.219,0.109-0.841,1.049-0.752,1.6c0.378,2.338-0.496,3.939-2.579,4.967c-0.286,0.141-0.554,0.344-0.783,0.566
	c-1.308,1.268-2.595,1.73-3.89-0.018c-0.034-0.046-0.228,0.027-0.404,0.055c-0.25,0.974-0.591,1.952-0.738,2.959
	c-0.166,1.137-0.691,1.404-1.809,1.371c-1.919-0.061-3.611-0.678-5.203-1.728c-0.508,1.792-0.122,3.169,1.309,4.172
	c1.553,1.088,1.737,2.251,0.154,3.587c-0.715-1.653-1.439-3.328-2.294-5.307c-0.823,1.578-1.578,2.846-2.158,4.188
	c-0.602,1.394-1.211,2.491-3.12,1.057c0.35,1.206-0.477,2.512,0.667,2.887c1.525,0.501,1.394,1.286,1.062,2.447
	c-0.3,1.05-0.488,2.14-0.632,3.226c-0.133,0.998-0.483,1.69-1.591,1.825c-3.598,0.438-5.186,2.891-6.06,6.069
	c-0.273,0.992-0.644,1.958-0.949,2.942c-0.151,0.487-0.197,1.146-0.909,0.994c-1.865-0.396-2.451,0.804-2.82,2.265
	c-1.208-0.484-1.611-1.105-0.838-2.222c0.474-0.685,0.785-1.479,1.201-2.206c0.323-0.566,0.474-1.159-0.208-1.475
	c-0.723-0.336-0.739,0.471-0.939,0.832c-1.042,1.871-2.034,3.768-3.044,5.656c-0.346-0.77-0.345-1.404-0.346-2.041
	c0-0.432-0.132-0.767-0.639-0.772c-1.57-0.019-3.196,0.113-4.459,1.005c-0.894,0.631-0.025,1.791,0.013,2.715
	c0.021,0.515,0.008,1.065,0.186,1.533c0.559,1.475-0.143,1.879-1.462,2.154c-1.171,0.244-2.819,0.104-2.574,2.081
	c-1.1-0.251-0.68-2.228-2.36-1.49c-1.595,0.7-1.382,1.672-0.763,2.872c0.304,0.589-0.027,0.912-0.532,1.229
	c-1.896,1.185-4.041,2.059-5.251,4.131c-0.214,0.367-0.677,0.324-1.066,0.305c-0.307-0.016-0.453-0.155-0.353-0.49
	c0.106-0.353,0.764-0.799-0.013-1.041c-0.457-0.142-1.127-0.154-1.49,0.09c-0.532,0.357-0.014,0.908,0.126,1.364
	c0.189,0.616,0.319,1.272,0.627,1.825c0.816,1.469,0.55,2.535-0.754,3.65c-1.563,1.336-3.192,2.755-4.057,4.637
	c-0.61,1.328-1.032,2.027-2.456,1.076c-0.306-0.203-0.748-0.398-0.927,0.166c-0.125,0.394,0.024,0.963,0.337,1.033
	c2.87,0.64,1.109,2.893,1.546,4.363c0.115,0.387-0.112,0.771-0.583,0.847c-2.987,0.482-2.277,2.614-2.124,4.633
	c0.812-0.25,1.515-0.466,2.314-0.713c0,0.39,0.059,0.653-0.009,0.879c-0.475,1.565-1.05,3.13,1.14,3.949
	c0.185,0.069,0.296,0.552,0.303,0.847c0.032,1.355,0.001,2.713,0.02,4.07c0.011,0.83-0.418,1.008-1.12,0.818
	c-1.239-0.332-3.201-3.59-2.621-4.725c0.916-1.79,0.021-2.88-1.045-4.084c-0.843,1.314-0.899,2.893-1.905,4.182
	c-1.089-2.074-2.121-4.037-3.23-6.15c-1.577,2.51-1.449,5.014-1.541,7.602c-0.166,4.645,0.792,8.611,4.691,11.512
	c0.374,0.277,0.991,0.744,0.511,1.268c-1.398,1.529-0.045,2.053,0.896,2.775c0.826,0.635,1.627,1.299,2.652,2.121
	c-2.314,0.059-3.007-0.23-5.549-2.152c-3.307-2.498-5.573-2.34-8.528,0.602c-0.412,0.41-0.854,0.795-1.227,1.238
	c-0.546,0.648-0.875,0.461-1.287-0.162c-0.819-1.24-1.13-2.639-1.281-4.328c-1.441,1.246-3.139,1.922-2.768,4.064
	c0.12,0.695-0.347,0.83-0.952,0.863c-1.329,0.072-2.514-0.02-3.428-1.238c-0.469-0.625-0.981-1.359-1.958-1.602
	c-0.217,0.902-0.527,1.754-0.608,2.627c-0.143,1.535-0.882,1.883-2.309,1.576c-2.27-0.484-4.59-0.74-6.849-1.268
	c-1.252-0.291-1.974,0.086-2.841,0.959c-2.422,2.443-3.918,5.58-6.236,8.088c-0.069,0.074,0.04,0.314,0.088,0.613
	c1.481-0.918,2.452-2.229,3.659-3.266c0.319-0.273,0.604-0.916,1.079-0.607c1.474,0.955,3.407,1.191,4.354,3
	c0.851,1.625,1.55,3.359,3.088,5.256c-0.722-3.873,2.205-3.734,4.395-4.73c-1.791-0.494-3.274-0.895-4.753-1.314
	c-1.039-0.293-2.533-2.521-2.128-3.443c0.357-0.814,0.857-1.793,2.118-1.545c3.896,0.766,4.995,1.801,5.759,5.824
	c0.278,1.469,0.833,2.561,2.059,3.486c1.48,1.121,2.839,2.436,3.782,4.092c-0.095,0.145-0.191,0.289-0.287,0.434
	c-1.095-0.689-1.275,0.34-1.64,0.914c-0.469,0.736,0.297,0.836,0.67,1.076c2.704,1.742,3.244,1.588,4.709-1.365
	c-0.751-0.189-2.053,0.242-1.75-1.262c0.626-3.098-0.796-5.301-3.021-7.205c-0.355-0.303-0.876-0.6-0.775-1.322
	c1.284,0.191,2.161-0.115,1.848-1.688c-0.16-0.799,0.313-1.158,1.004-1.377c0.736-0.232,1.457-0.516,2.186-0.771
	c2.45-0.861,2.449-0.859,2.644,1.768c0.027,0.367-0.117,0.84,0.3,1.035c0.493,0.229,0.884-0.148,1.179-0.463
	c1.014-1.082,2.066-2.145,2.944-3.332c0.65-0.879,1.234-1.078,2.238-0.631c2.381,1.059,4.871,1.715,7.51,1.541
	c0.918-0.061,1.471,0.121,1.411,1.232c-0.061,1.107,0.871,0.707,1.41,0.709c0.539,0,1.421,0.395,1.405-0.727
	c-0.011-0.719,0.06-1.313,1.014-1.209c0.838,0.094,1.848-0.355,2.317,0.83c0.402,1.014,0.908,1.988,1.292,3.008
	c1.166,3.102,2.822,5.943,4.566,9.238c0.328-1.889,0.739-3.281,0.769-4.682c0.037-1.707,0.753-2.131,2.258-1.719
	c0.133,0.037,0.365,0.131,0.38,0.104c0.117-0.209-0.063-0.23-0.208-0.258c-0.7-1.559-2.583-2.59-1.942-4.748
	c0.729-2.457,0.12-4.18-2.551-5.195c-1.779-0.678-2.154-4.48-0.615-5.473c2.812-1.813,3.78-3.906,1.831-6.895
	c-0.731-1.119,0.327-1.576,0.858-2.24c0.728-0.912,1.247-0.113,1.759,0.225c2.585,1.699,4.975,3.752,7.865,4.91
	c2.574,1.029,3.64,2.902,3.773,5.482c0.068,1.318,0.012,2.645,0.012,3.967c1.489-2.207,2.564-4.443,3.639-6.68
	c0.176-0.367,0.278-0.775-0.02-1.088c-0.962-1.012-0.451-1.996-0.04-3.021c0.397-0.99,0.728-2.008,1.255-3.48
	c-1.83,1.201-3.042,0.855-4.367-0.211c-0.786-0.633-2.081-0.596-3.095-0.992c-1.754-0.688-1.153,1.42-2.076,1.773
	c-0.23-1.992,0.479-4.193-1.863-5.365c-1.317-0.66-1.196-1.473-0.035-2.191c2.171-1.348,2.759-3.188,1.824-5.545
	c-0.023-0.057-0.007-0.13-0.026-0.19c-0.42-1.331,0.163-1.653,1.422-1.614c0.954,0.029,2.181,0.51,2.756-0.754
	c0.462-1.018,1.079-0.807,1.842-0.478c3.492,1.503,6.98,3.017,10.5,4.451c0.853,0.348,1.329,0.917,1.783,1.649
	c2.208,3.563,4.197,7.268,6.722,10.629c0.331,0.439,0.61,1.186,1.297,0.932c0.715-0.266,0.313-1.02,0.291-1.533
	c-0.259-5.936-0.356-11.887-1.406-17.757c-0.225-1.256,0.079-2.185,0.999-3.103c2.069-2.064,3.599-4.549,5.098-7.041
	c1.944-3.23,1.954-3.275,5.341-1.752c0.9,0.406,1.565,0.49,2.145-0.357c0.873-1.275,2.109-1.576,3.542-1.372
	c1.476,0.212,2.626-0.21,3.376-1.579c0.673-1.229,1.771-1.584,3.108-1.386c1.562,0.231,2.987-0.144,4.075-1.28
	c1.776-1.855,3.463-1.83,5.459-0.266c2.378,1.861,4.986,1.814,7.623,0.391c1.417-0.766,2.893-1.423,4.326-2.158
	c0.481-0.247,0.906-0.516,1.375,0.002c1.646,1.814,3.512,3.445,4.755,5.598c0.636,1.102,0.378,1.6-0.994,1.619
	c-2.704,0.039-2.868,0.226-3.341,2.996c-0.152,0.887-0.195,1.793-0.263,2.692c-0.035,0.461-0.013,1.003-0.61,1.038
	c-1.376,0.079-3.119,1.291-3.972,0.336c-0.834-0.934,0.667-2.262,1.323-3.338c0.167-0.274,0.359-0.545,0.589-0.768
	c1.494-1.447,1.993-3.175,1.797-5.244c-0.094-0.993-0.226-1.734-1.22-2.146c-1.079-0.445-1.243,0.629-1.782,1.044
	c-0.949,0.731-1.353,2.165-2.647,2.397c-1.094,0.196-2.333-0.238-2.562,1.51c-0.154,1.174-0.873,2.219-0.374,3.538
	c0.659,1.743,1.085,3.575,1.613,5.368c0.164,0.555,0.268,1.137,1.013,1.244c3.88,0.557,7.758,1.127,11.778,1.713
	c-0.428-2.023-0.958-3.761-1.137-5.533c-0.394-3.906-0.322-3.914,3.56-3.912c0.323,0,0.654,0.045,0.968-0.008
	c0.949-0.16,1.378,0.299,1.665,1.154c0.583,1.741,0.821,3.522,0.722,5.34c-0.049,0.887,0.229,1.398,1.051,1.807
	c1.913,0.949,3.746,2.063,5.185,3.674c0.78,0.873,1.399,0.385,1.969-0.116c0.814-0.716-0.176-1.047-0.488-1.274
	c-1.641-1.196-2.056-2.76-1.918-4.711c0.093-1.318,0.401-2.736-0.248-4.004c-2.552-4.986-4.684-10.207-8.11-14.711
	c-0.284-0.373-0.497-0.714-0.4-1.223c0.396-2.092,0.645-4.22,1.176-6.275c0.379-1.465,1.589-2.598,2.744-3.395
	c0.802-0.553,1.766,0.684,2.545,1.262c2.674,1.982,5.406,3.67,8.953,3.422c1.341-0.094,2.709,0.1,4.059,0.234
	c1.185,0.117,4.395,2.68,4.449,3.633c0.123,2.134-0.342,4.078-2.196,5.445c-0.615-0.523,0.065-1.514-0.591-1.761
	c-0.82-0.31-2.01-0.513-2.576,0.085c-0.72,0.762-1.504,1.969-0.853,3.076c0.803,1.363,1.783,2.555,3.753,2.6
	c2.507,0.058,5.025,0.402,7.499,0.846c1.455,0.261,2.692,0.091,3.82-0.769c1.596-1.217,2.942-1.069,4.596,0.131
	c2.802,2.032,2.898,1.907,3.633-1.374c0.133-0.592,0.339-1.191,0.86-1.457c0.708-0.359,0.959,0.443,1.354,0.783
	c0.733,0.63,1.405,1.334,2.09,2.02c0.866,0.867,2.119,1.613,2.466,2.658c0.338,1.018-0.921,1.992-1.524,2.949
	c-0.523,0.83-0.061,1.101,0.517,1.5c0.68,0.469,0.903,0.158,1.304-0.415c1.283-1.833,1.771-3.626,0.34-5.617
	c-1.077-1.499-1.119-2.829,0.559-4.084c0.948-0.708,0.935-4.356,0.077-4.752c-2.318-1.066-4.544-2.548-7.304-2.126
	c0.267-0.924,0.534-1.849,0.801-2.772c2.668,0.601,4.941,2.108,7.346,3.292c1.211,0.596,2.211,0.664,3.453,0.154
	c1.454-0.6,2.855-1.653,4.541-1.31c4.416,0.899,8.865,1.7,13.127,3.216c7.526,2.676,15.062,5.305,22.95,6.753
	c0.634,0.116,1.206,0.323,1.853-0.034c6.792-3.754,14.296-5.805,21.375-8.882c2.355-1.023,3.709-2.179,3.449-4.895
	c-0.121-1.263,0.017-2.612,0.344-3.842c0.744-2.79,0.026-4.79-2.552-6.233c-0.896-0.502-2.079-1.424-1.658-2.572
	c0.374-1.02,1.758-0.516,2.596-0.395c3.84,0.555,6.939-0.535,9.245-3.705c0.993-1.365,1.934-1.389,3.217-0.212
	c1.778,1.632,3.559,3.372,6.401,2.87c1.094-0.193,1.143,0.995,1.943,1.926c-1.844-0.361-3.158-0.677-4.49-0.847
	c-0.473-0.061-1.168-0.767-1.484,0.108c-0.282,0.784-0.026,1.43,0.842,1.881c3.259,1.689,6.463,3.483,9.721,5.174
	c0.69,0.358,1.419,0.941,2.356,0.513c-0.308-1.72-1.187-3.163-2.135-4.523c-0.901-1.292-1.306-2.515-0.446-3.946
	c0.065-0.063,0.131-0.125,0.196-0.187c-0.053-0.009-0.107-0.017-0.16-0.024c0.005,0.08,0.01,0.161,0.015,0.242
	c-1.446-0.457-3.029,0.152-4.712-0.648c1.603-0.557,2.563-2.371,4.454-1.256c5.423,3.194,11.285,4.127,17.479,3.465
	c1.215-0.13,2.454-0.026,3.682-0.047c12.595-0.213,25.201-0.75,37.751,0.799c5.083,0.629,10.011,0.162,14.938-1.116
	c3.243-0.841,6.562-1.392,9.839-2.104c0.641-0.14,1.228-0.257,1.891-0.054c5.566,1.705,11.297,1.71,17.052,1.828
	c4.455,0.094,8.681-0.562,12.938-1.799c4.936-1.434,9.771-3.344,14.992-3.658c4.385-0.265,8.778-0.477,13.145-0.934
	c2.94-0.307,6.024,0.223,8.812-0.955c5.937-2.507,11.799-5.189,17.685-7.814c0.464-0.207,0.961-0.44,1.308-0.795
	c3.124-3.195,6.933-5.63,10.081-8.746c5.332-5.277,11.445-9.174,18.349-11.965c2.03-0.82,3.979-1.842,5.999-2.689
	c0.998-0.418,1.696-1.076,2.345-1.916c2.893-3.74,5.404-7.72,7.459-11.973c0.529-1.098,1.158-1.563,2.366-1.437
	c3.952,0.409,7.547-0.429,11.083-2.415c4.235-2.38,7.632-5.268,9.018-10.07c0.217-0.751,0.587-1.26,1.338-1.491
	c4.278-1.313,6.642-4.451,8.099-8.472c0.21-0.578,0.257-1.576,0.937-1.555c1.885,0.061,3.995-2.293,5.674,0.441
	c0.096,0.157,0.455,0.203,0.694,0.213c2.314,0.096,4.598,0.355,5.923-2.356c0.747-1.528,1.876-3.017,4.08-2.449
	c0.45,0.116,0.987-0.008,0.897-0.659c-0.161-1.16,0.646-1.34,1.454-1.644c1.688-0.636,3.371-1.294,5.011-2.042
	c0.991-0.453,1.858-0.479,2.637,0.292c1.649,1.636,3.353,1.506,5.14,0.259c3.157-2.202,6.74-1.249,10.194-1.503
	c-1.614,1.729-3.107,3.401-4.259,5.345c-1.149,1.94-2.309,3.88-3.357,5.875c-0.987,1.879-1.868,3.457-4.36,4.041
	c-2.729,0.639-4.913,2.759-7.302,4.289c-1.099,0.705-2.131,1.604-3.637,1.818c0.111-0.344,0.118-0.561,0.23-0.68
	c0.793-0.85,1.604-1.684,2.416-2.514c2.093-2.137,1.978-2.65-0.779-3.903c-1.837-0.835-3.843-1.323-4.672-3.655
	c-0.649-1.828-1.719-1.902-3.245-0.58c-1.426,1.236-2.565,2.732-3.596,4.3c-1.276,1.94-2.657,3.842-3.664,5.919
	c-0.784,1.619-2.15,1.178-3.295,1.66c-1.146,0.484,0.29,2.797-1.643,3.436c-0.889,0.292-1.603,1.076-2.451,1.535
	c-0.971,0.527-1.293,1.244-1.267,2.35c0.058,2.459-0.078,2.631-2.302,1.676c-1.983-0.853-2.948,0.49-3.937,1.51
	c-0.861,0.889,0.586,1.43,0.864,2.188c0.218,0.592,0.672,1.094,0.986,1.655c0.316,0.565,0.775,1.277,0.428,1.807
	c-0.471,0.716-1.212,0.012-1.708-0.185c-2.553-1.016-5.325-0.416-6.933,1.049c-2.467,2.25-4.2,5.368-5.627,8.498
	c-0.469,1.027-0.121,1.586,1.192,1.646c2.73,0.128,5.271,1.174,7.869,1.93c0.738,0.215,1.043,0.542,1.011,1.338
	c-0.079,1.938-0.101,3.877-0.089,5.816c0.006,0.795-0.22,1.117-1.08,1.182c-3.73,0.279-7.514,0.89-11.039-0.843
	c-3.203-1.573-5.32-0.782-7.348,2.118c-1.207,1.727-1.658,3.187-1.132,5.143c0.689,2.559,1.656,5.014,2.579,7.488
	c0.645,1.726,1.525,3.38,1.892,5.566c-2.457-1.375-4.299-3.065-6.297-4.535c-0.891-0.654-1.524-1.342-1.326-2.544
	c0.201-1.221-0.475-1.409-1.497-1.251c-1.966,0.301-3.402,1.938-3.409,3.954c-0.015,3.918-0.053,4.128-3.986,3.413
	c-2.869-0.521-5.265-0.07-7.672,1.482c-1.501,0.967-3.188,1.986-4.896,2.213c-2.699,0.359-4.1,2.119-5.629,3.913
	c-0.293,0.345-0.603,0.675-0.899,1.017c-1.167,1.342-2.629,2.537-2.176,4.65c0.108,0.504-0.31,0.814-0.622,1.137
	c-3.24,3.338-6.483,6.674-9.719,10.018c-0.376,0.389-0.763,0.765-1.339,0.535c-1.455-0.58-2.325,0.191-3.009,1.301
	c-0.688,1.113-1.44,1.184-2.534,0.512c-1.426-0.873-3.049-0.886-4.691-0.826c-1.073,0.039-1.702,0.357-1.844,1.473
	c-0.182,1.432-1.06,2.237-2.388,2.719c-0.607,0.221-1.335,0.385-1.91,1.299c0.917,0,1.6,0,2.283,0c0.73,0,1.461,0,2.419,0
	c-1.022,1.236-1.897,2.104-2.536,3.121c-0.642,1.021-0.131,1.851,0.876,2.371c1.13,0.585,1.008-0.594,1.385-1.031
	c0.246-0.287,0.37-0.677,0.552-1.018c1.041-1.955,3.525-2.238,4.674-0.387c0.97,1.565,2.146,2.227,3.952,2.037
	c0.955-0.1,1.937,0.021,2.904,0.065c3.081,0.145,3.077,0.149,3.149-2.97c0.009-0.422-0.213-0.972,0.36-1.182
	c0.467-0.171,1.03,0.056,1.205,0.41c0.84,1.7,2.339,1.561,3.814,1.465c0.901-0.058,1.624,0.343,2.365,0.729
	c4.973,2.597,9.946,5.191,14.908,7.808c0.701,0.369,1.31,0.526,2.165,0.344c4.471-0.953,8.434-2.668,11.138-6.598
	c0.507-0.736,1.171-1.391,1.853-1.977c1.693-1.454,2.563-3.248,2.922-5.466c0.453-2.796,1.281-5.528,1.813-8.313
	c0.241-1.262,0.816-1.66,2.054-1.697c2.322-0.066,4.638-0.324,6.958-0.475c2.691-0.174,4.876-0.83,5.977-3.804
	c0.815-2.204,2.336-4.147,3.547-6.204c1.767-3,3.566-5.979,5.162-9.082c1.333-2.591,1.858-5.078,0.509-7.9
	c-0.792-1.659-1.492-3.489-1.15-5.489c1.655,2.691,2.885,5.524,3.043,8.741c0.024,0.496-0.169,1.063,0.322,1.445
	c0.48,0.371,5.258,0.111,5.612-0.433c1.389-2.122,2.704-1.202,4.229-0.147c2.921,2.02,3.315,1.9,5.454-0.976
	c0.192-0.259,0.377-0.524,0.541-0.802c1.014-1.715,1.358-3.313-0.073-5.114c-1.48-1.861-2.593-4.009-3.982-5.948
	c-0.682-0.952-0.455-1.598-0.029-2.586c0.86-1.992,2.51-2.187,4.25-2.348c0.723-0.067,1.197-0.189,1.209-1.096
	c0.015-1.053-0.656-0.954-1.28-0.891c-1.432,0.146-2.509-0.176-3.489-1.426c-2.331-2.969-2.538-2.912-6.165-1.665
	c-1.218,0.419-1.631,0.783-0.825,2.099c0.775,1.266,1.31,1.209,2.244,0.293c0.436-0.428,0.84-0.989,1.533-1.092
	c0.489,1.176,0.04,1.72-1.104,2.133c-1.792,0.646-3.345,0.863-4.936-0.602c-1.173-1.078-2.6-1.922-4.014-2.687
	c-1.206-0.653-1.659-1.522-1.443-2.81c0.318-1.898-0.285-3.355-1.894-4.473c-0.617-0.428-1.073-1.111-1.535-1.729
	c-0.304-0.405-0.636-0.933-0.351-1.429c0.263-0.457,0.825-0.215,1.248-0.18c1.58,0.134,3.075-0.098,4.521-0.781
	c0.647-0.307,1.021-0.621,1.003-1.418c-0.054-2.444,1.397-4.158,2.896-5.879c0.605,0.539,1.104,1.053,1.671,1.473
	c0.614,0.453,1.368,1.102,2.08,0.592c0.565-0.406-0.013-1.205-0.183-1.762c-0.506-1.654-0.928-3.132,1.124-4.154
	c0.602-0.301,1.13-1.168,1.284-1.865c0.439-1.984,1.599-1.812,3.161-1.525c1.357,0.25,1.64,1.242,1.889,2.144
	c1.349,4.88,4.885,7.134,9.497,8.171c1.635,0.367,3.267,0.951,4.914,1.009c2.082,0.073,1.826,1.351,1.759,2.632
	c-0.096,1.811-1.432,0.82-2.176,0.828c-1.908,0.021-3.687-0.355-4.651-2.357c-0.231-0.479-0.744-1.069-1.38-0.854
	c-0.643,0.218-0.573,0.943-0.546,1.518c0.035,0.73-0.047,1.2-1.001,1.205c-1.009,0.004-0.93-0.566-0.957-1.242
	c-0.109-2.697-0.955-3.645-3.657-4.375c-1.136-0.307-1.225,0.143-0.952,1.038c0.512,1.679,1.119,3.349,2.335,4.626
	c1.084,1.139,1.744,2.182,0.39,3.66c2.212,0.424,3.716-0.936,5.415-1.517c0.462,0.638-1.081,1.271,0.003,1.752
	c0.832,0.37,1.716,0.87,2.706,0.094c1.02-0.798,2.171-1.427,3.485-2.271c-0.126,2.521,0.414,4.554,1.6,6.257
	c1.149,1.651,1.005,2.686-0.785,3.53c-1.212,0.571-1.191,1.321-0.572,2.445c1.149,2.087,2.121,4.271,3.136,6.429
	c0.147,0.313,0.602,0.809,0.277,0.992c-0.921,0.521-1.89,1.328-3.026,0.817c-0.877-0.394-1.887-0.767-1.487-2.25
	c0.374-1.393,0.879-2.812,0.765-4.317c-0.628,0.076-0.868,0.967-1.587,0.549c-2.332-1.356-5.244-1.904-6.342-4.936
	c-0.504-1.389-3.123-2.177-4.367-1.525c-0.145,0.076-0.301,0.234-0.344,0.385c-0.264,0.934,1.487,5.193,2.402,5.566
	c1.369,0.559,1.735,1.49,1.615,2.884c-0.103,1.196-0.273,2.483,0.741,3.472c2.239,2.178,2.607,4.725,1.51,7.57
	c-0.497,1.288,0.106,1.949,1.325,2.192c1.896,0.378,3.837,0.596,5.688,1.13c1.777,0.512,2.841,0.101,3.248-1.718
	c0.573-2.559,2.096-3.649,4.69-3.063c1.983,0.446,2.742-0.711,3.269-2.322c1.007-3.09,1.264-6.314,1.838-9.484
	c0.34-1.877-0.411-2.025-1.902-1.739c-1.364,0.262-2.747,0.606-4.162,0.147c1.657-0.433,3.33-0.719,5.01-0.943
	c4.084-0.547,7.83-0.203,11.025,2.982c2.403,2.396,5.347,2.947,8.606,1.246c1.17-0.61,1.904-1.221,2.437-2.443
	c0.665-1.525,0.771-3.424,2.64-4.305c1.511-0.712,2.939-2.365,4.352-2.309c1.546,0.063,2.534,2.229,3.983,3.158
	c3.413,2.187,4.679,5.184,4.05,9.146c-0.152,0.956-0.275,2.014,0.489,2.949c2.698,3.307,5.009,6.889,7.315,10.473
	c0.789,1.226,4.677,3.105,5.644,2.736c2.169-0.83,4.363-1.627,4.918-4.35c0.163-0.801,0.722-1.514,0.981-2.306
	c0.278-0.851,0.789-1.327,1.665-1.298c2.417,0.082,3.689-1.053,4.669-3.309c1.211-2.791,2.191-3.002,5.23-2.564
	c1.597,0.229,3.232,0.275,4.797,0.639c2.096,0.488,3.445-0.232,4.732-1.895c2.527-3.266,5.775-6.004,7.788-9.618
	c1.121-2.012,2.554-0.735,3.793-1.099c1.092-0.32,1.397,0.555,1.725,1.367c0.225,0.559,0.188,1.548,0.966,1.49
	c1.602-0.12,3.327,0.675,4.802-0.572c1.671-1.413,2.188-3.006,1.142-5.082c-0.514-1.02-0.705-2.205-1.015-3.322
	c-0.333-1.205,0.748-4.658,1.703-4.977c4.151-1.385,8.23-3.086,12.66-3.406c0.946-0.069,1.708-0.301,2.466-0.867
	c3.526-2.634,3.587-2.639,5.334,1.282c0.523,1.176,1.111,1.622,2.45,1.525c4.021-0.29,8.061-0.495,11.912,1.124
	c0,0.646,0,1.293,0,1.939c-0.043-0.049-0.085-0.098-0.128-0.146c-1.74,2.709-4.689,4.534-5.698,7.766
	c-0.142,0.453-0.431,0.623-0.763,0.772c-4.465,2.011-8.731,4.608-13.49,5.774c-4.24,1.039-8.264,2.514-12.168,4.349
	c-18.081,8.497-35.999,17.329-54.371,25.224c-11.358,4.881-22.339,10.65-33.423,16.155c-30.134,14.967-59.991,30.505-90.935,43.79
	c-0.563,0.242-1.069,0.715-1.771,0.572c0.433-2.115,4.25-5.289,6.336-5.365c0.8-0.029,1.933,0.45,2.334-0.369
	c0.75-1.53,1.932-1.549,3.329-1.633c1.399-0.085,2.621-0.804,3.8-1.814c-0.64-0.473-1.117-0.913-1.669-1.219
	c-1.796-0.999-3.165-2.197-2.622-4.547c0.162-0.701-0.277-1.01-0.913-1.227c-5.969-2.024-12.03-3.358-18.399-2.791
	c-0.883,0.078-1.056,0.366-1.051,1.154c0.011,1.746,1.493,1.373,2.391,1.578c1.476,0.337,1.809,1.033,1.196,2.306
	c-0.867,1.8-1.644,3.66-2.689,5.353c-1.131,1.828-1.056,3.699-0.595,5.598c0.604,2.492,1.26,2.83,3.782,2.328
	c0.696-0.139,1.389-0.359,2.089-0.389c0.534-0.021,1.326-0.684,1.595,0.367c0.249,0.967-0.514,1.176-1.189,1.424
	c-19.549,7.148-39.119,14.24-58.641,21.465c-19.455,7.201-39.317,13.252-58.492,21.262c-19.987,8.35-39.951,16.717-59.331,26.42
	c-5.994,3.002-12.04,5.93-18.376,8.135c-18.822,6.545-37.998,11.943-57.15,17.41c-4.394,1.254-8.702,2.98-13.285,3.383
	c-5.533,0.484-11.093,0.668-16.64,0.996c-0.921,0.055-1.813,0.297-1.749-1.211c0.051-1.197-0.03-2.078,1.668-2.018
	c4.261,0.152,8.533,0.025,12.792,0.197c2.379,0.096,4.568-0.193,6.737-1.236c1.495-0.717,3.189-1.527,4.764-1.471
	c3.973,0.146,6.964-2.004,10.198-3.658c0.744-0.381,1.445-0.768,2.343-0.787c2.196-0.045,4.402-0.4,6.58-0.258
	c2.315,0.152,3.83-0.656,4.71-2.729c0.573-1.348,1.536-1.518,2.813-1.154c2.122,0.607,4.259,1.207,5.994-0.912
	c0.35-0.428,0.948-0.342,1.454-0.428c6.796-1.135,13.649-2.033,19.909-5.236c0.903-0.463,1.954-0.666,2.958-0.891
	c6.207-1.389,12.036-3.799,17.726-6.568c2.318-1.129,4.788-2.15,6.509-4.104c1.135-1.287,2.429-1.797,3.959-2.096
	c0.759-0.148,1.514-0.336,2.279-0.436c0.933-0.119,1.447-0.426,1.069-1.496c-0.25-0.713,0.003-1.217,0.835-0.891
	c2.172,0.852,3.638-0.367,5.181-1.582c2.036-1.605,4.316-2.807,6.685-3.861c1.291-0.574,2.935-0.998,3.684-2.025
	c1.963-2.695,4.562-2.361,7.239-2.182c0.321,0.021,0.656-0.035,0.967,0.031c1.526,0.332,2.294-0.334,2.452-1.82
	c0.169-1.58,1.017-2.156,2.603-2.031c1.279,0.1,2.581-0.133,3.872-0.119c1.699,0.02,2.686-0.646,2.682-2.512
	c-0.68-0.092-1.376-0.27-2.071-0.266c-1.832,0.008-2.413-0.816-2.585-2.666c-0.348-3.732-0.939-7.467-2.82-11.07
	c-0.248,0.773-0.501,1.313-0.586,1.875c-0.253,1.676-1.289,2.34-2.833,2.9c-1.907,0.691-3.583,0.107-5.271-0.361
	c-1.757-0.49-3.027-0.203-4.245,1.193c-1.354,1.555-2.853,3.002-4.413,4.354c-0.95,0.822-1.261,1.619-0.528,2.816
	c-2.665,0.201-4.999-0.498-7.149-1.414c-4.722-2.012-9.524-2.563-14.544-1.709c-1.017,0.174-2.053,0.248-3.084,0.316
	c-3.388,0.221-6.035,2.824-6.148,6.201c-0.035,1.035-0.311,1.482-1.404,1.576c-2.508,0.213-5.007,0.543-7.504,0.863
	c-0.629,0.082-1.509,0.1-1.811,0.496c-1.073,1.414-2.612,1.557-4.117,1.826c-3.048,0.547-6.118,0.984-9.151,1.602
	c-1.062,0.217-1.834-0.006-2.693-0.564c-1.396-0.906-2.61-2.375-4.269-2.553c-3.417-0.367-6.874-0.373-10.313-0.527
	c2.358,0.783,4.126,3.658,7.294,1.813c-0.235,1.707-1.164,2.699-2.21,3.482c-1.446,1.082-2.173,2.463-2.439,4.195
	c-0.117,0.76-0.468,1.484-0.58,2.244c-0.139,0.939-0.639,1.26-1.534,1.367c-3.018,0.363-5.986,0.764-8.649-1.363
	c-0.938-0.748-2.151-1.156-3.25-1.695c-0.336-0.164-0.875-0.465-1.046-0.336c-1.708,1.283-2.762-0.111-3.793-0.99
	c-1.085-0.926-1.838-0.807-2.727,0.168c-0.473,0.52-1.039,0.824-1.879,0.719c-3.294-0.416-3.298-0.375-3.249-3.742
	c0.008-0.533,0.286-1.336-0.701-1.166c-1.001,0.172-2.754-0.688-2.871,0.514c-0.176,1.809-1.402,1.91-2.439,2.527
	c-0.858,0.51-2.434,0.492-2.469,1.559c-0.062,1.857-1.33,2.518-2.462,3.416c-2.429,1.928-4.894,3.809-7.282,5.785
	c-0.866,0.715-1.73,0.955-2.828,0.871c-3.027-0.232-6.062-0.379-9.094-0.549c-0.609-0.033-1.49-0.273-1.074,0.883
	c0.561,1.561-0.373,1.609-1.446,1.482c-2.189-0.26-4.023,0.24-5.471,2.059c-0.674,0.846-1.667,1.65-2.756,1.676
	c-1.561,0.037-1.898,0.852-1.803,2.545c-1.759-1.711-2.936-0.596-4.316,0.195c-5.3,3.035-10.891,5.113-17.158,4.684
	c-1.675-0.115-3.362-0.063-5.036-0.191c-1.095-0.084-1.774,0.074-1.584,1.393c0.164,1.135-0.431,1.256-1.391,1.066
	c-1.646-0.324-3.31-0.551-4.97-0.797c-0.693-0.102-1.344-0.186-1.969,0.414c-0.909,0.873-1.724,2.635-2.782,2.357
	c-1.068-0.281-1.783-1.904-2.655-2.939c-0.157-0.184-0.325-0.359-0.536-0.592c-0.381,1.775-0.381,1.775-2.169,1.781
	c-0.517,0.002-1.039,0.045-1.55-0.008c-1.052-0.111-1.634,0.223-1.436,1.377c0.183,1.068-0.603,1.4-1.3,1.895
	c-0.808,0.57-2.166,0.746-2.233,1.936c-0.135,2.4-0.04,4.816-0.041,7.229c1.875-0.928,3.115-2.061,1.937-4.426
	c-0.51-1.021,0.712-2.375,1.848-2.021c1.661,0.518,3.373,1.016,4.961,2.047c-0.753,0.557-1.42,0.967-1.977,1.492
	c-0.354,0.336-1.407,0.498-0.83,1.178c0.438,0.514,1.13,1.336,2.146,0.703c0.337-0.211,0.645-0.686,1.247-0.359
	c0.133,1.254-0.8,1.947-1.536,2.695c-1.312,1.334-2.727,2.568-4.021,3.92c-0.426,0.445-1.224,0.922-0.61,1.789
	c-0.051-0.113-0.102-0.227-0.152-0.342c-0.048,0.039-0.096,0.076-0.144,0.113c0.099,0.074,0.198,0.148,0.298,0.223
	c1.431-1.672,3.433-2.555,5.248-4.041c0.143,1.221-0.851,1.963-0.583,2.953c2.626-0.646,2.647-0.639,3.538-3.234
	c0.201-0.586,0.576-0.602,1.038-0.6c0.775,0,1.567-0.102,2.323,0.02c1.412,0.23,1.943-0.428,2.192-1.707
	c0.146-0.744-0.022-1.885,1.135-1.982c2.889-0.244,5.718-1.883,8.691-0.389c0.715,0.359,1.159,0.285,1.166-0.734
	c0.006-0.99-0.524-2.486,0.281-2.85c0.792-0.359,2.068,0.34,3.129,0.59c0.376,0.088,0.739,0.23,1.112,0.332
	c1.135,0.307,1.35,0.887,0.541,1.783c-1.081,1.195-2.09,2.494-4.025,2.102c-0.471-0.096-1.086-0.141-1.063,0.691
	c0.014,0.494,0.323,0.811,0.715,0.656c1.706-0.668,4.108,1.588,5.316-1.26c0.065-0.152,0.7-0.064,1.07-0.084
	c1.337-0.068,2.641,0.543,4.006,0.271c-0.48-2.549-0.48-2.549,1.916-2.063c0.442,0.09,0.888,0.172,1.324,0.287
	c1.188,0.316,1.856-0.096,1.976-1.406c-0.261-0.033-0.505-0.061-0.747-0.096c-0.549-0.082-1.287,0.268-1.604-0.316
	c-0.371-0.684,0.317-1.172,0.672-1.678c2.401-3.412,5.44-5.916,9.53-7.15c1.76-0.533,3.273,0.08,4.619,0.729
	c0.811,0.391-0.294,1.676-0.413,2.582c-0.04,0.303-0.047,0.609-0.069,0.91c0.697,0.137,1.04-0.277,1.464-0.555
	c0.95-0.621,1.084-2.391,2.387-2.23c1.15,0.139,2.214,0.986,3.315,1.521c0.116,0.057,0.219,0.158,0.339,0.184
	c0.73,0.156,1.431,1.301,2.189,0.275c0.812-1.096,2.688-1.59,2.095-3.553c-0.133-0.441-0.654-1.182,0.392-1.324
	c0.713-0.098,1.24,0.078,1.413,0.924c0.18,0.881,0.538,1.725,0.731,2.604c0.54,2.459,0.913,2.705,3.389,1.969
	c0.886-0.264,1.779-0.576,2.617-1.604c-1.327,0-2.339,0.033-3.347-0.012c-0.62-0.029-1.556,0.365-1.519-0.855
	c0.027-0.914-0.315-1.898,1.127-2.256c1.933-0.482,3.842-1.127,5.682-1.893c1.565-0.652,2.839-0.883,3.519,1.072
	c0.979-0.629,0.986-2.578,2.702-1.602c1.265,0.721,2.254,0.623,2.853-0.881c0.219-0.553,0.608-0.883,1.116-0.229
	c0.276,0.355,1.042,0.691,0.361,1.215c-2.063,1.586-2.451,4.025-3.248,6.236c-1.019,2.824-3.653,4.504-6.514,3.824
	c-4.627-1.096-9.346-1.131-14.05-1.393c-0.994-0.057-1.488,0.197-1.322,1.252c0.182,1.156-0.388,1.418-1.438,1.375
	c-3.199-0.133-6.257,0.758-9.358,1.365c-7.712,1.512-14.752,5.002-22.144,7.453c-2.745,0.91-5.563,1.662-8.019,3.287
	c-0.255,0.17-0.554,0.49-0.83,0.141c-0.858-1.09-1.796-0.324-2.646-0.096c-3.11,0.842-6.174,1.857-9.296,2.646
	c-11.925,3.02-24.121,5.051-35.552,9.854c-0.334,0.141-0.792,0.449-1.016,0.01c-0.239-0.469-0.052-1.008,0.289-1.439
	c1.907-2.416,3.605-4.979,7.099-5.484c2.53-0.365,2.761-1.152,1.576-3.518c-0.273-0.545-0.639-1.043-1.177-1.91
	c-0.055,0.797-0.152,1.17-0.093,1.516c0.284,1.645-0.636,1.85-1.911,1.645c-1.287-0.207-2.539-0.582-3.607-1.322
	c-1.084-0.748-1.57-0.273-1.994,0.697c-0.638,1.461-0.706,3.016-0.703,4.561c0.002,1.156-0.439,1.5-1.591,1.574
	c-11.794,0.76-23.573,1.674-35.419,1.172c-7.808-0.332-15.634-0.258-23.451-0.379c-0.426-0.006-1,0.219-1.245-0.232
	c-0.298-0.551,0.236-0.934,0.539-1.332c0.64-0.844,1.792-1.186,2.463-2.48c-2.49,0.475-4.697,0.879-6.898,1.316
	c-10.507,2.088-20.926,4.381-30.535,9.467c-3.85,2.039-7.718,4.26-12.051,5.158c-5.422,1.127-10.521,2.973-15.174,5.98
	c-0.379,0.244-1.363,0.127-1.004,1.104c-0.517,0-1.034,0-1.551,0c0.149-3.139,0.995-5.762,3.866-7.717
	c1.977-1.346,4.786-0.525,6.274-2.779c0.08-0.121,0.614,0.037,0.93,0.098c0.887,0.168,1.792,0.285,2.65,0.551
	c1.083,0.336,1.881,0.203,2.326-0.945c0.269-0.697,0.804-1.008,1.53-0.865c3.333,0.658,5.798-0.9,8.098-3.037
	c1.181-1.096,2.529-2.01,3.756-3.059c0.681-0.58,1.397-0.861,2.291-0.77c5.131,0.531,9.396-1.715,13.083-4.785
	c2.501-2.082,5.077-3.4,8.216-3.793c0.678-0.084,1.367-0.191,1.472-0.975c0.345-2.551,1.885-2.195,3.59-1.561
	c0.26,0.096,0.584,0.299,0.917-0.238c-1.993-1.635-0.836-3.791-0.697-5.756c0.105-1.479-0.885-1.779-1.734-2.184
	c-1.036-0.492-1.139,0.697-1.322,1.182c-0.73,1.924-2.073,1.844-3.896,1.459c0.765-0.857,1.358-1.523,1.95-2.189
	c1.426-1.604,1.424-2.029-0.409-3.27c-1.921-1.301-4.028-2.34-5.887-3.719c-4.001-2.967-8.183-4.064-12.892-1.848
	c-0.342,0.16-0.757,0.16-1.123,0.283c-1.296,0.43-2.261,0.471-1.966-1.393c0.096-0.607,0.178-1.266-0.878-1.293
	c-1.118-0.027-1.15,0.605-1.033,1.35c0.167,1.063-0.304,1.672-1.196,2.152c-0.793,0.426-1.465,1.111-2.287,1.443
	c-2.432,0.982-4.33,2.453-5.212,5.021c-0.236,0.686-0.824,0.66-1.427,0.691c-1.627,0.082-3.287,3.432-2.121,4.559
	c1.818,1.756,1.633,3.148-0.135,4.656c-0.067,0.059-0.037,0.229-0.058,0.389c0.616,0.186,1.165-0.094,1.658-0.338
	c1.414-0.697,2.01-0.305,2.267,1.258c0.343,2.096,1.003,4.137,1.397,6.227c0.832,4.406,0.797,4.412-3.591,5.355
	c-0.189,0.041-0.372,0.109-0.561,0.15c-1.625,0.35-3.927-0.762-4.921-2.467c0.817,0.248,1.528,0.463,2.459,0.744
	c-0.132-0.453-0.232-0.732-0.293-1.02c-0.388-1.816-1.254-2.148-2.635-0.848c-1.923,1.813-4.129,2.188-6.575,1.291
	c-1.492-0.547-2.321-0.299-2.034,1.529c0.159,1.014-0.028,1.621-1.347,1.74c-6.561,0.588-13.13,1.158-19.653,2.051
	c-2.392,0.328-4.287-0.217-6.159-1.439c-0.425-0.277-1.321-0.305-0.972-1.15c0.272-0.662,0.157-1.604,1.163-1.844
	c0.751-0.18,1.479-0.461,2.231-0.637c0.575-0.135,0.964-0.346,0.851-1.023c-0.265-1.576,0.456-3.701-0.767-4.645
	c-1.988-1.535-4.095-3.73-6.639-3.643c-3.082,0.107-4.61-1.135-5.691-3.643c-0.202-0.469-0.526-0.889-0.815-1.314
	c-1.762-2.605-1.445-5.523-0.579-8.154c1.44-4.367,3.737-8.34,7.279-11.453c0.725-0.637,1.292-1.451,2.008-2.102
	c0.831-0.754,0.898-1.293-0.227-1.766c-0.676-0.285-0.856-0.855-0.883-1.566c-0.049-1.355-0.137-2.713-0.304-4.059
	c-0.119-0.955,0.006-1.563,1.092-1.865c0.85-0.238,1.433-0.891,0.983-2.076c-0.864,0.459-1.687,0.938-2.548,1.332
	c-0.387,0.176-0.869,0.82-1.278,0.037c-0.329-0.631-1.13-1.092-0.588-2.045c1.111-1.953,2.161-2.492,4.331-2.059
	c3.021,0.604,2.991,0.592,4.214-2.217c0.427-0.98,0.494-2.625,1.462-2.779c2.613-0.422,5.255-2.145,8.076-0.227
	c-0.071-1.607,0.553-3.008,1.342-4.191c2.455-3.68,3.102-7.691,2.678-11.973c-0.122-1.23,0.279-2.225,1.004-3.213
	c0.635-0.865,1.556-1.586,1.95-2.775c-4.386,1.684-6.267,4.709-5.759,9.189c0.072,0.637,0.057,1.295,0.001,1.936
	c-0.224,2.588-0.753,5.107-1.951,7.436c-0.54,1.049-1.183,2.029-2.648,1.748c-2.929-0.559-5.255,0.574-7.271,2.598
	c-0.362,0.363-0.808,0.641-1.209,0.965c-1.154,0.934-2.036-0.178-3.026-0.416c-0.97-0.234-0.579-1.041-0.512-1.604
	c0.676-5.707,1.363-11.414,2.107-17.111c0.231-1.775,0.034-3.635,0.915-5.299c3.951-7.461,7.864-14.959,11.972-22.313
	c4.13-7.395,7.894-14.879,11.231-22.651c4.448-10.356,9.398-20.468,11.592-31.679c1.255-6.414,2.238-13.004,5.774-18.762
	c0.187-0.303,0.135-0.753,0.196-1.134c1.421-8.923,2.629-17.888,4.331-26.757c1.448-7.547,3.118-15.039,3.535-22.74
	c0.036-0.65,0.247-1.33-0.349-1.801c-1.838-1.453-1.395-3.322-1.168-5.268c0.551-4.73,1.803-9.377,1.459-14.217
	c-0.385-5.414-0.743-10.84-0.784-16.263c-0.029-3.806-1.613-6.972-3.167-10.224c-0.615-1.287-1.316-1.099-2.21-0.262
	c-1.688,1.578-3.126,3.346-4.324,5.73c-0.169-1.508-0.252-2.646-0.436-3.769c-0.197-1.207-0.438-2.411-0.75-3.593
	c-0.292-1.105,0.313-1.258,1.116-1.115c1.57,0.277,2.198-0.57,2.506-1.915c0.267-1.165,1.529-2.337,0.849-3.427
	c-1.307-2.097-2.133-4.836-5.276-5.146c-0.525-0.052-1.12-0.254-1.485-0.806C69.874,3.539,68.671,1.793,67.48,0.037z
	 M525.801,184.207c0.592,0.316,1.132,0.018,1.654-0.184c5.135-1.977,10.376-3.533,15.886-4.012c0.665-0.059,1.145-0.324,1.369-0.891
	c1.185-2.984,3.517-3.561,6.379-3.158c0.697,0.098,1.423-0.029,2.129,0.023c0.943,0.072,1.188-0.346,1.232-1.242
	c0.165-3.27-3.982-6.174-7.743-5.32c0.452,0.916,1.433,1.467,1.752,2.609c-1.644-0.191-3.049-0.805-4.419-1.489
	c-1.312-0.655-1.862-1.446-0.486-2.7c0.424-0.385,1.557-0.888,0.54-1.822c-0.979-0.898-1.972-1.779-3.295-2.973
	c0,1.063-0.059,1.695,0.014,2.313c0.133,1.143-0.204,2.063-1.222,2.607c-1.534,0.82-1.904,2.107-1.71,3.715
	c0.077,0.637-0.054,1.299,0.027,1.934c0.146,1.15-0.369,1.336-1.417,1.375c-2.284,0.088-4.227-0.904-6.365-1.875
	c0,0.961,0,1.727,0,2.492c0,3.055,0,3.055-3.189,3.396c0.695,1.955,1.729,4.068-1.078,5.236c-0.175,0.012-0.353,0.025-0.286,0.277
	c0.006,0.021,0.12,0.047,0.163,0.025C525.9,184.467,526.075,184.375,525.801,184.207z M441.719,194.459
	c0.055,1.895,1.104,3.006,1.887,4.211c1.614,2.484,3.447,4.838,4.437,7.682c0.737,2.119-1.629,5.652-3.899,5.477
	c-2.289-0.178-3.941,0.547-5.341,2.289c-2.217,2.76-4.78,4.836-8.695,3.959c-1.011-0.227-1.135,0.467-1.128,1.285
	c0.007,0.791,0.03,1.344,1.1,1.338c2.042-0.012,3.938-0.566,5.85-1.182c1.295-0.418,2.175-0.965,1.885-2.533
	c-0.241-1.301,0.585-1.207,1.355-0.846c1.442,0.676,2.791,0.428,4.279,0.047c2.741-0.701,5.228-1.662,7.087-3.945
	c0.764-0.939,1.853-1.605,2.724-2.465c0.605-0.6,1.265-0.832,2.086-0.756c3.751,0.346,7.318-0.115,10.472-2.396
	c0.502-0.363,1.096-0.627,1.416,0.168c0.604,1.496,1.46,1.045,2.381,0.391c0.789-0.561,1.759-0.975,2.337-1.701
	c2.696-3.393,6.312-4.09,10.33-3.795c0.577,0.043,1.164-0.068,1.743-0.037c1.551,0.08,2.833-0.457,4.127-1.322
	c4.132-2.76,8.7-4.428,13.662-4.873c1.307-0.117,1.301-0.613,0.643-1.406c-1.123-1.357-2.658-2.242-4.021-3.324
	c-0.501-0.396-0.912-0.051-1.217,0.191c-2.097,1.666-4.364,1.586-6.737,0.781c-1.546-0.523-2.552-0.348-2.211,1.686
	c0.075,0.445,0.293,1.398-0.756,1.025c-3.847-1.367-8.641-1.381-9.804-6.689c-0.211-0.963-0.679-0.865-1.358-0.395
	c-1.194,0.826-0.719,2.063-0.591,3.018c0.261,1.941-0.732,2.574-2.298,3.096c-1.326,0.441-1.634-0.764-2.397-1.207
	c-0.935-0.541-1.975-1.051-2.895-0.486c-0.634,0.389-0.27,1.449-0.223,2.197c0.065,1.049,1.092,1.004,1.756,1.189
	c1.598,0.449,1.246,1.729,1.031,2.654c-0.231,0.998-1.279,0.41-1.966,0.398c-0.609-0.012-1.029-0.486-1.426-0.918
	c-0.62-0.674-1.335-1.018-2.526-0.822c1.115,1.281,2.031,2.332,3.119,3.58c-2.261,0.525-4.188,1.389-6.381,0.85
	c-2.266-0.555-4.621-0.49-6.912-0.82c-2.581-0.371-4.338,0.266-5.165,2.85c-0.029,0.092-0.163,0.15-0.146,0.135
	C445.537,201.412,444.896,197.006,441.719,194.459z M208.376,276.117c1.983-0.898,2.422-2.145,1.398-3.979
	c-0.592-1.059-1.071-2.225-1.151-3.453c-0.062-0.955-0.486-1.564-1.272-1.992c-1.469-0.795-2.944-1.576-4.414-2.369
	c-0.497-0.27-1.005-0.434-1.309,0.201c-0.72,1.508-1.447,0.842-2.252,0.084c-0.548-0.518-1.172-0.955-1.806-1.463
	c-0.243,0.35-0.473,0.588-0.598,0.873c-0.734,1.689-1.523,3.02-3.327,0.916c-0.25-0.291-0.839-0.633-1.204-0.203
	c-0.655,0.77-0.138,1.596,0.153,2.35c0.179,0.465,0.206,1.459,0.981,1.074c1.72-0.85,2.435,0.416,3.352,1.328
	c1.89,1.879,1.883,1.883,3.561-0.23c0.056-0.068,0.201-0.066,0.423-0.135c0.244,2.111,1.575,2.094,3.158,1.59
	c0.488-0.154,1.014-0.191,1.504-0.342c1.16-0.355,1.755-0.055,1.916,1.252C207.674,273.119,208.066,274.594,208.376,276.117z
	 M165.831,280.816c1.242-1.342,2.396-2.605,3.569-3.854c1.605-1.707,3.945-1.219,4.676,0.961c0.409,1.219,0.936,2.406,1.24,3.648
	c0.409,1.672,1.342,2.332,3.028,2.016c0.859-0.162,2.13,0.365,2.509-0.41c0.402-0.82-0.791-1.445-1.32-2.115
	c-1.738-2.203-1.709-3.58,0.212-5.5c0.547-0.547,1.11-1.08,1.634-1.648c0.22-0.238,0.807-0.646,0.284-0.873
	c-2.121-0.918-1.109-2.324-0.693-3.658c0.162-0.52,0.345-1.059-0.522-1.037c-0.533,0.016-1.241-0.215-1.238,0.736
	c0.003,1.031-0.023,2.063,0.002,3.094c0.016,0.619-0.144,0.953-0.853,0.939c-2.52-0.047-5.372,0.77-6.542-2.635
	c-0.008-0.023-0.203,0.018-0.508,0.049c1.034,2.951-0.673,4.541-2.947,5.84c-0.444,0.254-0.801,0.664-1.25,0.906
	C165.738,278.014,165.246,279.082,165.831,280.816z M749.24,72.414c1.325,2.16,1.807,5.344,5.132,6.318
	c0.735,0.215,1.461,1.347,2.299,0.111c0.782-1.154,2.396-2.177,1.024-3.774c-1.043-1.216-2.674-2.002-2.286-4.027
	c0.02-0.1-0.49-0.335-0.776-0.452c-0.713-0.291-1.435-0.556-2.158-0.818C750.051,68.89,749.306,69.416,749.24,72.414z
	 M664.273,92.941c0-1.027-0.039-1.74,0.011-2.447c0.052-0.749-0.275-0.981-0.986-1.081c-1.913-0.268-3.82-0.597-5.719-0.959
	c-0.941-0.18-1.152,0.129-0.918,0.999c0.572,2.119,1.111,4.242,2.624,5.951c0.61,0.689,0.944,1.521,1.096,2.436
	c0.076,0.458-0.268,1.13,0.456,1.306c0.623,0.151,1.124-0.214,1.52-0.669C663.813,96.797,664.659,94.91,664.273,92.941z
	 M706.422,98.229c0,0.711,0.11,1.441-0.021,2.127c-0.361,1.885,0.745,1.951,2.003,1.597c1.357-0.384,2.678-0.927,3.98-1.48
	c1.735-0.737,2.091-2.642,0.747-3.96c-1.152-1.131-2.4-2.166-3.532-3.316c-0.674-0.684-1.009-0.455-1.697,0.068
	C706.126,94.617,706.609,96.479,706.422,98.229z M607.773,147.291c0.16,0.684,0.23,1.404,0.496,2.045
	c0.755,1.816,1.552,2.092,3.358,1.272c1.4-0.636,2.814-1.246,4.195-1.922c0.876-0.429,1.142-2.218,0.488-2.915
	c-1.284-1.371-3.619-1.83-5.348-1.048c-0.7,0.317-1.38,0.692-2.102,0.947C608.062,145.953,607.723,146.446,607.773,147.291z
	 M145.403,280.893c0.468,2.223,4.222,2.889,1.674,5.824c3.041-0.057,5.688-0.484,8.747-1.383c-2.484-0.488-4.539-0.475-6.573-1.148
	c0.709-1.424,1.342-2.684,1.963-3.947c0.733-1.494,3.031-0.176,3.576-1.998c-2.684-0.461-2.684-0.461-3.136-2.357
	C150.715,279.258,149.1,281.516,145.403,280.893z M197.815,284.785c1-0.516,1.797-0.918,2.586-1.338
	c0.459-0.244,0.932-0.59,1.368-0.029c0.567,0.73,1.102,0.342,1.676,0.039c2.351-1.242,4.491-2.779,6.386-4.637
	c1.111-1.088,2.12-2.203,3.496-0.334c0.274,0.373,0.727,0.652,1.059,0.029c0.249-0.469,0.893-0.881,0.552-1.488
	c-0.727-1.297-3.509-1.611-4.541-0.576c-1.726,1.732-3.345,3.58-5.34,5.025c-0.364,0.264-0.81,0.633-1.224,0.377
	c-0.446-0.273-0.179-0.816-0.1-1.242c0.188-1.01,0.397-2.014,0.597-3.02c-1.01,2.85-3.429,3.959-5.96,4.955
	C197.357,282.945,197.783,283.805,197.815,284.785z M324.594,149.348c0-2.398,0.057-4.799-0.043-7.193
	c-0.022-0.543,0.669-1.916-0.729-1.59c-0.993,0.23-2.594-0.262-2.764,1.847C320.811,145.491,322.847,147.244,324.594,149.348z
	 M375.419,118.64c-1.15,0-2.112-0.06-3.063,0.015c-1.11,0.088-2.676-0.551-3.209,0.543c-0.546,1.121,0.817,2.123,1.396,3.149
	c0.721,1.278,1.658,1.219,2.682,0.354C374.403,121.704,374.926,120.35,375.419,118.64z M160.678,284.068
	c5.947,1.229,8.216,1.303,9.638,0.416c-0.366-0.674-1.364-0.658-1.707-1.643c0.703-0.035,1.313-0.074,1.924-0.09
	c0.541-0.016,0.841-0.275,0.878-0.811c0.026-0.377,0.097-0.982-0.328-0.979c-0.949,0.012-2.292-0.676-2.746,0.619
	c-0.717,2.049-2.162,2.168-3.941,2.084C163.321,283.613,162.23,283.887,160.678,284.068z M314.879,153.543
	c0.13-1.961-0.129-3.34-1.63-4.236c-1.266-0.758-2.537-1.508-3.808-2.256c-2.052-1.209-2.058-1.205-3.03,0.734
	C310.072,148.121,312.238,150.913,314.879,153.543z M516.124,189.4c0.008-0.398-3.3-3.527-3.735-3.549
	c-0.306-0.014-0.438,0.182-0.594,0.395c-1.036,1.422-0.307,4.211,1.303,4.943C513.872,191.543,516.107,190.221,516.124,189.4z
	 M160.261,189.293c0.588-2.506,0.502-5.004,0.512-7.498c0.002-0.555-0.052-1.059-0.797-0.998c-0.412,0.033-1.07-0.184-1.089,0.445
	C158.807,184.006,158.628,186.805,160.261,189.293z M143.361,287.242c0.002-0.156,0.004-0.313,0.006-0.469
	c-4.162-0.322-8.324-0.643-12.486-0.965c0.783,0.887,1.441,1.932,2.465,1.912C136.686,287.66,140.023,287.416,143.361,287.242z
	 M126.47,267.508c-1.613,0.766-3.18,1.658-4.851,2.264c-1.704,0.617-2.011,1.678-1.49,3.518
	C122.563,271.596,125.462,270.727,126.47,267.508z M144.273,273.762c-1.372,1.605-2.39,2.813-2.797,4.412
	c-0.142,0.559-0.458,1.33,0.012,1.637c0.604,0.395,1.306-0.201,1.942-0.439c0.446-0.166,0.395-0.615,0.429-0.994
	C143.981,277.029,144.101,275.684,144.273,273.762z M60.891,204.027c1.019-0.473,1.104-2.393,1.83-1.789
	c2.373,1.973,2.194-0.984,3.333-1.316c-2.125,0.605-3.989-0.811-6.127-0.703c0.226,1.025,0.417,1.945,0.633,2.859
	C60.631,203.379,60.763,203.666,60.891,204.027z M647.825,133.314c0.279-0.243,0.567-0.405,0.724-0.651
	c0.313-0.491-0.602-5.813-1.077-6.075c-0.304-0.166-0.761-0.191-1.107-0.105c-0.395,0.097-0.292,0.523-0.215,0.818
	C646.669,129.284,646.954,131.336,647.825,133.314z M340.318,122.571c1.517-0.14,2.817-0.333,2.825-1.641
	c0.004-0.849-0.626-2.274-1.639-2.219c-1.177,0.065-1.824,1.224-1.863,2.521C339.617,122.008,339.64,122.689,340.318,122.571z
	 M243.798,62.225c0.786-0.051,1.52-0.059,1.391-0.869c-0.191-1.207-0.702-2.403-1.741-3.048c-0.403-0.25-1.243,0.577-1.064,1.201
	C242.668,60.511,242.649,61.807,243.798,62.225z M149.803,271.326c0.838,0.699,1.762,1.26,2.779,1.643
	c0.495,0.184,1.071,0.227,1.276-0.43c0.145-0.465,0.286-0.984-0.151-1.424C152.656,270.059,150.825,270.146,149.803,271.326z
	 M341.874,16.953c1.09-1.199,1.99-2.193,2.892-3.184c0.129-0.143,0.268-0.277,0.404-0.412c0.333-0.331,0.678-0.689,0.16-1.105
	c-0.309-0.248-0.459-0.824-1.069-0.564C343.414,12.049,341.754,15.333,341.874,16.953z M190.074,278.945
	c1.224,0.004,2.28-0.32,2.495-1.598c0.079-0.473-0.561-1.156-1.161-0.986c-1.007,0.285-2.2,0.551-2.438,1.842
	C188.786,279.191,189.636,278.852,190.074,278.945z M676.854,90.52c0.313,0.503-0.678,1.686,0.8,1.816
	c0.347,0.03,0.957,0.166,0.96-0.319c0.005-1.083-0.139-2.173-0.305-3.247c-0.058-0.379-0.509-0.281-0.813-0.284
	c-0.506-0.006-0.642,0.317-0.642,0.749C676.853,89.621,676.854,90.006,676.854,90.52z M580.624,161.498
	c0,0.855,0.064,1.561-0.013,2.25c-0.166,1.474,0.48,1.326,1.509,0.92c1.291-0.51,1.698-1.035,0.365-1.971
	C581.933,162.311,581.558,161.664,580.624,161.498z M217.078,282.637c-1.595-1.947-2.676-2.049-3.545-0.443
	c-0.17,0.316-0.302,0.789-0.188,1.09c0.177,0.467,0.658,0.207,1.005,0.117C215.221,283.174,216.085,282.918,217.078,282.637z
	 M55.724,213.684c0.164,0.104,0.328,0.207,0.492,0.311c1.314-2.111,2.628-4.221,3.942-6.33c-0.121-0.078-0.243-0.154-0.364-0.23
	C58.438,209.518,57.081,211.6,55.724,213.684z M210.692,75.92c-0.196,0.915,0.356,1.568,0.816,2.223
	c0.356,0.506,1.008,0.875,1.502,0.555c0.669-0.435-0.005-1.035-0.225-1.465C212.388,76.461,211.673,76.011,210.692,75.92z
	 M344.563,122.554c0.035,2.106,0.411,2.438,2.795,2.203C346.36,123.883,345.639,123.061,344.563,122.554z M186.318,276.914
	c0.034,1.705,0.165,2.777,1.367,3.82C187.939,279.158,187.702,278.129,186.318,276.914z M625.425,142.016
	c0.388,0.917,0.767,1.779,1.429,1.709c0.699-0.074,1.168-0.867,1.262-1.709C627.252,142.016,626.437,142.016,625.425,142.016z
	 M612.889,142.574c-0.706-0.755-1.138-1.355-1.982-1.404C610.469,142.965,611.259,143.109,612.889,142.574z M232.674,148.073
	c0.744-0.692,1.745,0.441,1.937-0.953c0.057-0.413,0.105-1.146-0.418-1.101C233.359,146.09,233.053,146.892,232.674,148.073z
	 M205.733,274.506c-0.201,1.213,0.306,1.877,1.296,2.529C206.944,275.924,206.854,275.049,205.733,274.506z M60.51,207.059
	c-0.032-0.105-0.064-0.213-0.096-0.318c-0.093,0.057-0.237,0.098-0.265,0.178c-0.03,0.086,0.05,0.209,0.082,0.316
	C60.324,207.176,60.417,207.119,60.51,207.059z"/>
<path fill-rule="evenodd" clip-rule="evenodd" fill="#84FF24" d="M0.388,260.262c0-86.16,0.004-172.318-0.036-258.479
	c0-1.454,0.327-1.789,1.781-1.783c16.741,0.059,33.482,0.037,50.222,0.037c0.154,2.256,0.299,4.512,0.467,6.768
	c0.037,0.502-0.123,1.301,0.353,1.428c2.169,0.578,1.059,1.854,0.664,2.904c-0.272,0.725,0.047,1.219,0.314,1.799
	c1.516,3.296,4.028,5.826,6.471,8.396c3.803,4.004,7.982,7.608,10.318,12.895c1.23,2.785,1.585,5.38,1.031,8.213
	c-0.296,1.514-0.584,3.088-1.242,4.459c-1.617,3.367-1.291,6.912-1.333,10.443c-0.008,0.66,0.179,1.119,0.8,1.385
	c1.194,0.508,0.952,1.145,0.105,1.75c-1.706,1.219-2.039,2.77-1.378,4.709c0.363,1.066,0.418,2.181-0.966,2.713
	c-0.427,0.164-0.483,0.563-0.49,0.965c-0.071,4.334,0.022,8.65,1.017,12.905c0.189,0.809,0.511,0.979,1.306,0.944
	c1.63-0.072,3.23-0.648,5.029-0.379c-0.768,1.08-2.212,1.33-2.106,3.063c0.364,5.93,0.468,11.877,0.705,17.816
	c0.044,1.109-0.05,2.178-0.324,3.254c-2.601,10.246-5.095,20.521-7.796,30.74c-3.136,11.867-7.57,23.271-12.75,34.389
	c-0.986,2.115-2.014,4.184-1.658,6.623c0.11,0.752-0.296,1.367-0.606,2.002c-2.093,4.293-4.903,8.219-7.016,12.438
	c-2.542,5.08-5.445,9.938-8.086,14.945c-0.905,1.717-1.852,3.432-2.175,5.354c-1.115,6.621-2.948,13.08-4.338,19.639
	c-0.321,1.516-0.913,2.598-2.523,2.949c-1.353,0.297-1.758,1.148-1.243,2.5c0.508-0.236,1.011-0.473,1.561-0.73
	c0.253,0.717,0.331,1.295-0.114,2.006c-2.141-1.631-3.378-0.607-4.22,1.396c-0.473,1.127-1.286,1.391-2.453,1.35
	c-1.472-0.053-0.316-1.465-0.988-1.783c-2.975,1.018-2.997,3.379-2.765,5.84c0.155,1.65,0.147,3.172-2.489,3.295
	c1.334,0.732,2.238,1.346,3.229,1.746c1.328,0.539,1.374,1.41,1.052,2.516c-0.95,0.109-1.588-0.74-2.472-0.5
	c0.26,0.803,0.496,1.529,0.792,2.443c-3.427-0.061-5.68-3.873-9.682-2.338c3.074-0.299,2.896,1.564,2.793,3.371
	c-0.027,0.48,0.029,0.984,0.518,1.145c1.775,0.576,1.069,1.631,0.423,2.662c1.079,0.371,2.201-0.34,3.05,0.521
	c1.723,1.748,3.57,3.408,2.462,6.309c-0.313,0.82-0.264,1.781-0.358,2.68c-0.051,0.492-0.268,1.008,0.234,1.438
	c2.486,2.121,3.489,5.205,5.14,7.875c1.358,2.195,1.032,3.938-0.508,5.926c-6.099,7.881-12.788,15.229-19.723,22.365
	c0-15.383,0-30.768,0-46.15c0.645,0.209,1.084,0.871,1.809,0.867C3.208,260.129,1.119,260.82,0.388,260.262z"/>
<path fill-rule="evenodd" clip-rule="evenodd" fill="#84FF24" d="M215.735,279.992c-0.1-0.074-0.199-0.148-0.298-0.223
	c0.048-0.037,0.096-0.074,0.144-0.113c0.051,0.115,0.102,0.229,0.152,0.342L215.735,279.992z"/>
<path fill-rule="evenodd" clip-rule="evenodd" fill="#84FF24" d="M317.738,257.828c-0.225,0.111-0.458,0.148-0.544,0.281
	c-1.324,2.029-2.562,0.609-3.847-0.057c-0.696-0.359-0.978-0.691-0.468-1.471c0.429-0.654,0.804-0.906,1.515-0.447
	c0.483,0.313,1.007,0.566,1.525,0.82c0.613,0.303,1.383,1.094,1.39-0.496c0.002-0.527,0.582-0.361,0.929-0.346
	c1.027,0.047,2.053,0.182,3.08,0.178c0.807-0.002,1.35,0.176,1.521,1.064c0.095,0.49,0.474,1.004-0.165,1.35
	c-0.684,0.371-1.243,1.186-2.233,0.561C319.578,258.723,318.638,258.301,317.738,257.828z"/>
<path fill-rule="evenodd" clip-rule="evenodd" fill="#84FF24" d="M249.187,265.352c0.97,0,1.706-0.041,2.434,0.014
	c0.558,0.043,1.431-0.346,1.473,0.672c0.029,0.723,0.407,1.654-0.278,2.146c-0.66,0.473-1.313-0.158-1.845-0.594
	C250.301,267.041,249.714,266.406,249.187,265.352z"/>
<path fill-rule="evenodd" clip-rule="evenodd" fill="#84FF24" d="M240.355,266.537c0.445-1.223-0.288-2.643,1.292-3.139
	c0.497-0.156,1.083-0.129,1.235,0.75C243.221,266.115,241.764,266.059,240.355,266.537z"/>
<path fill-rule="evenodd" clip-rule="evenodd" fill="#84FF24" d="M414.5,225.451c-1.221-0.082-2.227,0.484-2.937-0.387
	c-0.275-0.338-0.07-1.094,0.511-1.279C413.27,223.408,413.776,224.281,414.5,225.451z"/>
<path fill-rule="evenodd" clip-rule="evenodd" fill="#84FF24" d="M302.68,259.594c1.725-0.166,2.959,0.064,3.821,1.725
	C304.798,261.615,303.539,261.432,302.68,259.594z"/>
<path fill-rule="evenodd" clip-rule="evenodd" fill="#84FF24" d="M692.314,80.059c0.295-3.396,0.38-6.314,0.851-9.17
	c0.377-2.285-1.009-3.917-1.536-5.859c-0.571-2.104-1.978-3.197-3.844-4.202c-2.271-1.224-4.456-1.98-6.961-1.114
	c-2.032,0.701-2.891-0.74-3.908-1.98c-0.496-0.605-0.154-0.967,0.331-1.217c4.243-2.188,5.727-5.688,4.944-10.285
	c-0.007-0.042,0.056-0.096,0.103-0.172c0.489-0.086,0.64,0.372,0.805,0.641c3.337,5.408,8.932,7.077,14.512,8.688
	c2.734,0.788,3.286,1.704,1.338,3.672c-2.189,2.211-2.675,4.441-1.344,7.199c0.748,1.551,0.39,3.063-0.167,4.656
	C696.322,74.107,694.786,77.021,692.314,80.059z"/>
<path fill-rule="evenodd" clip-rule="evenodd" fill="#84FF24" d="M254.823,131.531c-1.083,0.086-1.961,0.916-3.146,0.764
	c-0.661-0.086-0.45,0.627-0.48,1.031c-0.039,0.508,0.109,0.881,0.732,0.866c0.707-0.017,1.414,0,2.121,0.003
	c0,0.575,0,1.151,0,2.039c-1.682-1.682-2.864-0.812-3.997,0.371c-0.746,0.779-1.381,1.012-1.6-0.386
	c-0.176-1.121-0.952-1.116-1.853-1.153c-1.021-0.04-1.311,0.498-1.556,1.32c-0.305,1.023-0.731,2.012-1.213,2.978
	c0.263-5.467,0.268-10.925,1.231-16.306c0.106-0.594-0.044-1.479,0.835-1.517c0.903-0.038,1.918-0.419,2.685,0.54
	c2.012,2.518,3.982,5.076,6.14,7.463C255.467,130.369,254.335,130.914,254.823,131.531z"/>
<path fill-rule="evenodd" clip-rule="evenodd" fill="#84FF24" d="M671.035,15.93c0.155,0.734-0.569,0.794-1.189,0.958
	c-1.993,0.527-3.974,1.108-5.984,1.559c-1.055,0.236-1.636,0.761-2.058,1.757c-0.802,1.896-1.775,3.719-2.659,5.58
	c-0.494,1.041-1.122,1.102-1.91,0.324c-0.045-0.045-0.098-0.084-0.148-0.125c-4.329-3.471-4.296-4.637,0.222-7.661
	c0.054-0.036,0.126-0.048,0.171-0.091c2.569-2.442,5.533-2.998,8.838-1.811c1.043,0.374,1.822,0.332,2.363-0.83
	c0.312-0.672,0.98-1.024,1.788-0.813C670.94,14.902,670.951,15.324,671.035,15.93z"/>
<path fill-rule="evenodd" clip-rule="evenodd" fill="#84FF24" d="M570.84,121.471c-3.198-1.793-5.309-4.266-6.519-7.492
	c-0.431-1.15-0.223-1.867,1.349-1.904c3.278-0.078,3.272-0.17,4.087,3.168C570.24,117.225,570.701,119.209,570.84,121.471z"/>
<path fill-rule="evenodd" clip-rule="evenodd" fill="#84FF24" d="M237.556,80.746c0.468-0.79,0.793-1.2,0.974-1.666
	c0.731-1.893,2.069-2.609,4.055-2.277c1.593,0.268,2.149-0.265,1.302-1.814c-0.228-0.415-0.628-0.945,0.084-1.313
	c0.422-0.219,0.819-0.88,1.322-0.452c0.463,0.394,1.063,1.025,0.875,1.624c-0.366,1.165-0.484,2.499-2,3.056
	C242.065,78.675,240.042,79.663,237.556,80.746z"/>
<path fill-rule="evenodd" clip-rule="evenodd" fill="#84FF24" d="M689.642,91.498c-0.207-0.77-0.201-1.609,0.42-1.819
	c1.851-0.626,1.477-2.126,1.567-3.452c0.114-1.66,0.179-3.322,0.27-5.076c1.19,0.193,1.707,0.689,1.37,1.918
	c-0.271,0.984-0.521,2.005-0.559,3.018C692.625,88.373,691.621,90.089,689.642,91.498z"/>
<path fill-rule="evenodd" clip-rule="evenodd" fill="#84FF24" d="M117.967,165.031c0.866,0.711,1.331,1.165,1.865,1.515
	c0.879,0.575,0.893,1.153,0.444,2.095c-0.423,0.888-1.826,1.697-0.557,3.006c0.258,0.266-0.286,0.432-0.6,0.447
	c-0.628,0.033-1.168-0.018-1.159-0.877C117.981,169.302,117.967,167.386,117.967,165.031z"/>
<path fill-rule="evenodd" clip-rule="evenodd" fill="#84FF24" d="M251.952,69.44c-0.55,1.052-1.046,1.87-1.418,2.743
	c-0.42,0.984-1.23,0.743-1.965,0.732c-0.521-0.008-1.078-0.104-1.176-0.748c-0.119-0.78,0.327-1.344,0.869-1.832
	C249.24,69.455,250.41,69.295,251.952,69.44z"/>
<path fill-rule="evenodd" clip-rule="evenodd" fill="#84FF24" d="M119.985,154.541c-0.43,0.596,0.639,1.826-0.834,1.906
	c-0.851,0.046-1.691-0.313-1.864-1.281c-0.166-0.926,1.204-2.613,1.978-2.488C120.53,152.881,119.59,153.941,119.985,154.541z"/>
<path fill-rule="evenodd" clip-rule="evenodd" fill="#84FF24" d="M258.88,64.367c0.592-1.376,1.116-2.145,2.261-2.01
	c0.636,0.074,0.841,0.736,0.641,1.199C261.248,64.793,260.116,63.855,258.88,64.367z"/>
<path fill-rule="evenodd" clip-rule="evenodd" fill="#84FF24" d="M683.57,10.486c0.867-0.926,1.794-1.158,2.959-1.6
	C685.875,10.303,685.104,10.835,683.57,10.486z"/>
<path fill-rule="evenodd" clip-rule="evenodd" fill="#84FF24" d="M166.351,110.689c1.091-0.832,1.301-1.935,2.423-1.837
	c0.207,0.019,0.556,0.657,0.54,0.671C168.612,110.143,167.74,110.345,166.351,110.689z"/>
<path fill-rule="evenodd" clip-rule="evenodd" fill="#84FF24" d="M363.98,13.664c1.065,0.533,1.457,1.055,0.07,1.887
	C363.774,14.928,363.852,14.348,363.98,13.664z"/>
<path fill-rule="evenodd" clip-rule="evenodd" fill="#84FF24" d="M90.08,207.023c0.099,0.16,0.198,0.322,0.297,0.482
	c-0.068,0.059-0.135,0.119-0.202,0.18c-0.127-0.076-0.255-0.152-0.382-0.229C89.889,207.313,89.984,207.168,90.08,207.023z"/>
<path fill-rule="evenodd" clip-rule="evenodd" fill="#84FF24" d="M90.376,207.506c0.174,0.033,0.346,0.088,0.215,0.303
	c-0.02,0.031-0.271-0.078-0.416-0.123C90.241,207.625,90.309,207.564,90.376,207.506z"/>
<path fill-rule="evenodd" clip-rule="evenodd" fill="#84FF24" d="M102.716,282.016c-0.283,0.945-0.491,1.66-0.711,2.371
	c-0.178,0.576-0.063,1.365-0.988,1.418c-0.752,0.043-1.404-0.217-1.912-0.758c-0.563-0.602,0.052-1.076,0.261-1.563
	c0.278-0.646,0.661-1.248,0.984-1.877c1.342-2.617,0.138-4.533-2.815-4.635c-0.615-0.02-1.73,0.65-1.833-0.66
	c-0.084-1.074-0.461-2.418,1.24-2.738c1.273-0.24,1.636-0.912,1.225-2.176c-0.335-1.031-0.401-2.148-0.678-3.205
	c-0.196-0.744,0.029-1.131,0.635-1.594c1.233-0.939,2.214-1.211,2.927,0.512c0.443,1.068,2.289,1.857,0.658,3.363
	c-0.092,0.084,0.105,0.607,0.282,0.84c1.637,2.146,1.733,4.637,1.587,7.164c-0.075,1.295,0.212,2.391,1.145,3.334
	c0.517,0.523,1.188,1.107,0.183,1.865c-1.1,0.83-1.036-0.398-1.446-0.775C103.245,282.705,103.079,282.453,102.716,282.016z"/>
<path fill-rule="evenodd" clip-rule="evenodd" fill="#84FF24" d="M86.063,269.951c-0.124,1.059-0.218,1.801-0.296,2.545
	c-0.345,3.299-0.706,3.607-3.926,3.643c-0.718,0.008-0.903-0.191-0.783-0.861c0.239-1.328,0.411-2.629,1.874-3.328
	C83.955,271.459,84.864,270.73,86.063,269.951z"/>
<path fill-rule="evenodd" clip-rule="evenodd" fill="#84FF24" d="M89.191,281.943c1.034-0.148,1.579-0.006,1.632,1.324
	c0.079,1.951-1.426,2.08-2.487,2.164c-1.127,0.09-2.143-1.396-2.068-2.121C86.422,281.83,88.026,282.037,89.191,281.943z"/>
<path fill-rule="evenodd" clip-rule="evenodd" fill="#84FF24" d="M96.685,285.727c-0.495,1.004-0.95,1.932-2.069,1.939
	c-0.943,0.004-1.817-0.883-1.687-1.531c0.237-1.176,1.677-1.078,2.626-1.387C96.094,284.572,96.433,285.291,96.685,285.727z"/>
<path fill-rule="evenodd" clip-rule="evenodd" fill="#84FF24" d="M465.994,203.209c1.186,0,2.13,0.016,3.074-0.004
	c0.743-0.016,0.794,0.443,0.794,1.012c0,0.623-0.21,0.945-0.896,0.936C467.729,205.133,466.7,204.811,465.994,203.209z"/>
<path fill-rule="evenodd" clip-rule="evenodd" fill="#84FF24" d="M471.657,200.918c0.978,0.846,1.909,0.955,1.835,1.883
	c-0.041,0.502-0.758,0.5-1.147,0.369C471.32,202.826,472.005,202.049,471.657,200.918z"/>
<path fill-rule="evenodd" clip-rule="evenodd" fill="#549E38" d="M165.92,204.734c0.01,0.01,0.019,0.021,0.029,0.031
	c0,0.015,0.007,0.022,0.02,0.027c0.009,0.011,0.019,0.021,0.028,0.033c0.013,0.033,0.026,0.065,0.059,0.084h0
	c0.001,0.021,0.013,0.033,0.031,0.041c0.001,0.003,0.002,0.006,0.005,0.008c0,0.014,0.007,0.022,0.021,0.027
	c0.004,0.007,0.009,0.014,0.013,0.021l-0.001,0.004l0.004,0.002c0.001,0.003,0.004,0.006,0.007,0.008
	c0.006,0.028,0.023,0.048,0.046,0.063c0.005,0.007,0.01,0.015,0.015,0.021c0.003,0.004,0.007,0.01,0.01,0.015
	c0,0.003,0.002,0.005,0.004,0.007c0.003,0.006,0.006,0.01,0.009,0.015c0.014,0.02,0.027,0.038,0.041,0.057
	c0,0.014,0.005,0.023,0.019,0.027l0.002-0.003l-0.002,0.003c0.001,0.011,0.005,0.019,0.015,0.021l0,0
	c0.029,0.064,0.069,0.119,0.122,0.166l0.001,0.001c0.022,0.039,0.029,0.092,0.082,0.108l0,0c0.001,0.014,0.007,0.024,0.021,0.027
	c0.004,0.023,0.014,0.041,0.039,0.046h0c0.011,0.03,0.032,0.054,0.06,0.071c0.011,0.013,0.021,0.025,0.032,0.039
	c0.033,0.073,0.095,0.114,0.16,0.154c0.018,0.017,0.036,0.034,0.056,0.052c0.012,0.021,0.027,0.037,0.053,0.042l0,0.002
	c0.014,0.031,0.041,0.049,0.072,0.059h0.001c0.032,0.029,0.06,0.064,0.104,0.077h0c0.005,0.012,0.014,0.019,0.027,0.02
	c0.007,0.005,0.014,0.011,0.021,0.016c0.034,0.039,0.079,0.059,0.124,0.08h0.002c0.021,0.025,0.047,0.044,0.08,0.053v-0.002
	c0.004,0.004,0.008,0.008,0.013,0.011c0.007,0.006,0.015,0.01,0.022,0.014c0.004,0.014,0.013,0.021,0.028,0.02
	c0.001,0.003,0.005,0.005,0.008,0.005c0.009,0.014,0.021,0.021,0.038,0.022c0.007,0.005,0.014,0.01,0.021,0.015
	c0.05,0.049,0.11,0.08,0.173,0.113c0.002,0.002,0.006,0.004,0.01,0.005c0.015,0.02,0.033,0.033,0.058,0.037l0,0
	c0.078,0.069,0.165,0.126,0.256,0.175c0.002,0.003,0.005,0.005,0.008,0.006c0.004,0.014,0.013,0.021,0.028,0.021h0.001
	c0.012,0.032,0.038,0.044,0.067,0.052l0.002-0.002l-0.002,0.002c0.026,0.041,0.07,0.058,0.106,0.086h0.001
	c0.003,0.013,0.011,0.021,0.025,0.022l0,0c0.004,0.004,0.009,0.008,0.013,0.012l0,0c0.003,0.013,0.012,0.021,0.025,0.021
	c0.002,0.003,0.004,0.004,0.007,0.005c0.005,0.004,0.01,0.008,0.014,0.012c0.004,0.003,0.008,0.007,0.012,0.011
	c0.013,0.03,0.035,0.054,0.065,0.066l0,0.002c0,0.015,0.008,0.022,0.024,0.021l0.001,0.002c0.002,0.027,0.02,0.042,0.043,0.051
	c0.01,0.012,0.019,0.023,0.028,0.034c-0.001,0.014,0.006,0.021,0.019,0.027h0c0.01,0.024,0.022,0.047,0.047,0.06h0
	c0.007,0.03,0.024,0.054,0.048,0.072v0.001c0.001,0.016,0.007,0.029,0.025,0.035c0.001,0.003,0.002,0.006,0.005,0.009
	c0.006,0.029,0.022,0.053,0.045,0.072c0.005,0.009,0.01,0.017,0.014,0.023c-0.001,0.015,0.006,0.023,0.019,0.028l0.002-0.003
	l-0.002,0.003c0,0.01,0.003,0.019,0.012,0.023c0,0.004,0.002,0.007,0.004,0.009c0.053,0.115,0.107,0.229,0.16,0.344
	c0.003,0.006,0.005,0.012,0.007,0.018c0.001,0.005,0.002,0.008,0.003,0.014c0.001,0.007,0.004,0.015,0.006,0.022
	c-0.001,0.001-0.003,0.003-0.002,0.004c0.002,0.003,0.004,0.005,0.006,0.006v0.002c0.008,0.04,0.015,0.083,0.037,0.12
	c0.001,0.02,0.002,0.039,0.005,0.059c-0.003,0.027,0.004,0.051,0.02,0.074c0.001,0.022,0.002,0.047,0.003,0.07
	c-0.007,0.025-0.009,0.051,0.009,0.074c0,0.091,0,0.184,0,0.276c-0.014,0.015-0.015,0.032-0.009,0.05
	c-0.001,0.022-0.002,0.047-0.003,0.071c-0.02,0.021-0.016,0.047-0.009,0.073c-0.001,0.027-0.002,0.055-0.003,0.082
	c-0.006,0.011-0.013,0.023-0.007,0.038c-0.002,0.032-0.005,0.062-0.007,0.094c-0.015,0.026-0.029,0.053-0.021,0.086
	c0,0.023-0.001,0.048-0.002,0.07c-0.02,0.026-0.016,0.058-0.019,0.086c-0.004,0.022-0.008,0.045-0.012,0.066
	c-0.01,0.021-0.015,0.043-0.011,0.066c-0.002,0.011-0.004,0.023-0.005,0.033c-0.019,0.026-0.023,0.056-0.022,0.087
	c-0.001,0.007-0.002,0.015-0.003,0.022c-0.018,0.034-0.031,0.069-0.032,0.109c-0.001,0.007-0.002,0.015-0.003,0.022
	c-0.012,0.01-0.014,0.022-0.012,0.037c-0.002,0.011-0.005,0.02-0.008,0.03c-0.002,0.005-0.004,0.012-0.007,0.017
	c-0.001,0.003-0.002,0.006-0.003,0.009c-0.033,0.065-0.054,0.136-0.07,0.207c-0.002,0.002-0.004,0.005-0.004,0.008
	c-0.002,0.006-0.005,0.011-0.007,0.017c-0.098,0.231-0.216,0.451-0.38,0.644c-0.208,0.244-0.452,0.447-0.71,0.634
	c-0.503,0.362-1.053,0.631-1.643,0.818c-0.309,0.098-0.628,0.143-0.948,0.185c-0.231,0.03-0.464,0.059-0.697,0.08
	c-0.171,0.016-0.341,0.04-0.513,0.047c-0.111,0.006-0.223,0.036-0.335,0.051c-0.043,0.005-0.089-0.004-0.131,0.028
	c0.031,0.021,0.066,0.012,0.097,0.012c0.79,0,1.579-0.002,2.368,0.001c0.355,0.002,0.711,0.015,1.063,0.074
	c0.447,0.076,0.877,0.208,1.269,0.44c0.408,0.24,0.728,0.571,0.95,0.993c0.086,0.165,0.182,0.325,0.231,0.506
	c0.041,0.154,0.026,0.311,0.029,0.466c0.003,0.168,0.005,0.338-0.017,0.504c-0.026,0.2-0.042,0.401-0.078,0.6
	c-0.05,0.279-0.145,0.54-0.284,0.786c-0.057,0.101-0.108,0.206-0.167,0.306c-0.048,0.083-0.134,0.125-0.212,0.171
	c-0.2,0.119-0.363,0.274-0.511,0.45c-0.236,0.281-0.427,0.593-0.602,0.915c-0.111,0.204-0.214,0.412-0.325,0.615
	c-0.108,0.196-0.215,0.397-0.384,0.547c-0.201,0.178-0.379,0.381-0.601,0.532c-0.229,0.156-0.474,0.285-0.75,0.338
	c-0.152,0.029-0.309,0.041-0.466,0.027c-0.067-0.006-0.135-0.001-0.203-0.015c-0.029-0.006-0.06-0.005-0.08-0.034
	c-0.008-0.012-0.023-0.018-0.038-0.01c-0.049,0.03-0.097,0.008-0.145-0.001c-0.416-0.08-0.771-0.278-1.092-0.55
	c-0.177-0.151-0.351-0.305-0.513-0.471c-0.27-0.273-0.506-0.576-0.731-0.888c-0.17-0.236-0.315-0.484-0.389-0.767
	c-0.063-0.242-0.121-0.486-0.174-0.729c-0.057-0.258-0.126-0.512-0.196-0.766c-0.031-0.112-0.063-0.224-0.104-0.331
	c-0.008-0.022-0.018-0.043-0.032-0.076c-0.041,0.072-0.039,0.143-0.04,0.205c-0.006,0.303-0.013,0.606,0,0.908
	c0.017,0.396,0.05,0.792,0.102,1.187c0.054,0.416,0.131,0.825,0.269,1.222c0.128,0.363,0.274,0.723,0.493,1.045
	c0.176,0.26,0.403,0.476,0.625,0.695c0.069,0.07,0.134,0.144,0.194,0.222c0.105,0.136,0.141,0.29,0.118,0.457
	c-0.015,0.106-0.025,0.215-0.068,0.316c-0.015,0.032-0.031,0.06-0.052,0.086c-0.021,0.025-0.043,0.037-0.069,0.007
	c-0.011-0.013-0.029-0.027-0.041-0.01c-0.042,0.059-0.1,0.034-0.147,0.022c-0.204-0.047-0.407-0.101-0.596-0.194
	c-0.214-0.108-0.409-0.242-0.585-0.404c-0.174-0.161-0.333-0.334-0.476-0.522c-0.191-0.255-0.346-0.529-0.475-0.819
	c-0.158-0.358-0.283-0.727-0.368-1.108c-0.049-0.22-0.077-0.444-0.097-0.669c-0.037-0.418-0.025-0.836-0.019-1.255
	c0.005-0.333,0.015-0.667,0.042-1.001c0.009-0.108,0.005-0.219,0.012-0.329c0.011-0.202,0.021-0.404,0.017-0.606
	c-0.001-0.058-0.014-0.068-0.068-0.042c-0.09,0.047-0.147,0.12-0.174,0.22c-0.074,0.275-0.124,0.558-0.173,0.839
	c-0.075,0.425-0.145,0.85-0.221,1.272c-0.067,0.377-0.138,0.751-0.251,1.117c-0.148,0.479-0.41,0.887-0.787,1.22
	c-0.197,0.175-0.418,0.313-0.652,0.435c-0.179,0.092-0.365,0.164-0.566,0.187c-0.093,0.01-0.184,0.002-0.276,0.006
	c-0.311,0.011-0.62-0.016-0.926-0.069c-0.248-0.041-0.489-0.104-0.718-0.209c-0.133-0.06-0.251-0.148-0.36-0.247
	c-0.165-0.147-0.32-0.307-0.464-0.476c-0.168-0.199-0.328-0.401-0.473-0.616c-0.171-0.254-0.302-0.528-0.438-0.801
	c-0.01-0.021-0.015-0.039,0-0.062c0.023-0.035,0.005-0.052-0.03-0.055c-0.022-0.002-0.039-0.01-0.049-0.028
	c-0.085-0.132-0.205-0.229-0.32-0.33c-0.144-0.126-0.275-0.264-0.4-0.406c-0.146-0.167-0.29-0.336-0.423-0.515
	c-0.115-0.156-0.227-0.314-0.319-0.485c-0.047-0.086-0.067-0.175-0.069-0.27c-0.007-0.255,0.019-0.507,0.044-0.759
	c0.024-0.233,0.053-0.464,0.115-0.691c0.066-0.237,0.167-0.461,0.297-0.672c0.328-0.533,0.784-0.924,1.336-1.209
	c0.194-0.099,0.396-0.185,0.613-0.217c0.152-0.022,0.305-0.036,0.458-0.057c0.206-0.027,0.415-0.019,0.621-0.046
	c0.03-0.004,0.061-0.002,0.09-0.002c0.306-0.001,0.612-0.025,0.917-0.028c0.186-0.003,0.372-0.009,0.558-0.021
	c0.253-0.017,0.507-0.025,0.757-0.069c0.056-0.01,0.11-0.023,0.16-0.051c0.016-0.008,0.038-0.016,0.033-0.036
	c-0.003-0.017-0.026-0.018-0.041-0.02c-0.127-0.017-0.253-0.035-0.38-0.051c-0.368-0.043-0.735-0.075-1.104-0.11
	c-0.394-0.036-0.788-0.077-1.18-0.13c-0.334-0.046-0.665-0.104-0.989-0.189c-0.437-0.117-0.847-0.301-1.237-0.531
	c-0.321-0.189-0.59-0.438-0.819-0.729c-0.128-0.163-0.194-0.349-0.217-0.557c-0.029-0.256-0.019-0.512-0.02-0.767
	c-0.001-0.312,0.098-0.598,0.234-0.872c0.179-0.36,0.454-0.641,0.744-0.909c0.287-0.266,0.6-0.498,0.894-0.755
	c0.152-0.133,0.264-0.299,0.382-0.461c0.223-0.307,0.458-0.605,0.703-0.896c0.165-0.195,0.326-0.395,0.514-0.569
	c0.213-0.196,0.441-0.376,0.688-0.528c0.164-0.103,0.333-0.191,0.515-0.256c0.173-0.062,0.352-0.102,0.536-0.119
	c0.13-0.013,0.26-0.005,0.389-0.013c0.181-0.01,0.35,0.036,0.516,0.098c0.298,0.107,0.583,0.241,0.846,0.422
	c0.438,0.3,0.77,0.688,0.971,1.184c0.081,0.197,0.143,0.399,0.17,0.611c0.001,0.012,0.006,0.023,0.01,0.034
	c0.006,0.077,0.019,0.154,0.038,0.229c0.002,0.012,0.005,0.023,0.008,0.034c-0.006,0.063,0.012,0.123,0.02,0.184
	c0.02,0.152,0.034,0.305,0.067,0.455c0,0.008,0,0.016,0.001,0.023c0.008,0.077,0.017,0.153,0.025,0.229
	c0.001,0.008,0.002,0.015,0.003,0.022c-0.005,0.013-0.003,0.026,0.006,0.036c0.001,0.013,0.001,0.024,0.002,0.037
	c0.008,0.08,0.011,0.162,0.034,0.24c0.001,0.012,0.001,0.024,0.002,0.035c0.002,0.058,0.004,0.115,0.022,0.17
	c0,0.011,0.001,0.023,0.001,0.034c0.005,0.062,0.002,0.123,0.023,0.181c0.002,0.021,0.004,0.04,0.007,0.059
	c-0.003,0.046,0,0.092,0.017,0.135c0.001,0.031-0.003,0.063,0.009,0.095c0.001,0.041-0.004,0.082,0.016,0.121
	c0.001,0.017,0.001,0.031,0.002,0.048c0.003,0.045,0.002,0.091,0.022,0.133c0.002,0.024,0.004,0.047,0.007,0.069
	c-0.002,0.042-0.001,0.085,0.017,0.123c0.001,0.019,0.004,0.039,0.005,0.059c0.011,0.104,0.022,0.209,0.033,0.313
	c0.001,0.015,0.004,0.03,0.023,0.029c0.024,0,0.019-0.021,0.019-0.035c-0.002-0.089,0.015-0.175,0.024-0.262
	c0.005-0.052,0.017-0.102,0.008-0.155c0.002-0.006,0.003-0.014,0.005-0.021c0.006-0.036,0.016-0.072,0.004-0.109
	c0.003-0.012,0.006-0.023,0.008-0.035c0.015-0.051,0.011-0.104,0.013-0.156c0-0.008,0-0.016,0-0.023
	c0.012-0.028,0.012-0.057,0.004-0.086c0.002-0.008,0.004-0.016,0.005-0.022c0.018-0.04,0.013-0.081,0.007-0.122
	c0.002-0.011,0.004-0.021,0.006-0.033c0.008-0.102,0.027-0.201,0.018-0.303c0.001-0.008,0.003-0.015,0.005-0.022
	c0-0.004,0.001-0.008,0.001-0.012c0-0.013,0-0.024,0.001-0.037c0.01-0.016,0.01-0.032,0.002-0.05
	c0.002-0.007,0.003-0.014,0.005-0.021c0.012-0.053,0.017-0.104,0.01-0.157c0.002-0.008,0.003-0.016,0.004-0.023
	c0.007-0.072,0.02-0.146,0.021-0.219c0.001-0.06,0.017-0.118,0.007-0.178c0-0.006,0.001-0.014,0.003-0.02
	c0.024-0.057,0.015-0.116,0.013-0.175c0.001-0.007,0.003-0.015,0.004-0.021c0.006-0.013,0.012-0.023,0.001-0.037
	c0.002-0.019,0.003-0.037,0.004-0.057c0.023-0.047,0.02-0.098,0.012-0.148c0.002-0.013,0.003-0.023,0.006-0.036
	c0.016-0.026,0.013-0.056,0.005-0.085c0.001-0.007,0.002-0.014,0.004-0.021c0.014-0.031,0.018-0.063,0.009-0.098
	c0.001-0.013,0.004-0.023,0.005-0.035c0.008-0.016,0.015-0.031,0.003-0.048c0.003-0.025,0.006-0.049,0.009-0.072
	c0.015-0.02,0.015-0.039,0.005-0.06c0.002-0.011,0.003-0.021,0.004-0.03c0.019-0.054,0.026-0.108,0.022-0.165
	c0.003-0.011,0.004-0.021,0.007-0.034c0.012-0.052,0.025-0.105,0.038-0.158c0.003-0.007,0.005-0.013,0.008-0.021
	c0.001-0.004,0.002-0.008,0.004-0.012c0.002-0.002,0.003-0.005,0.004-0.008c0.012-0.011,0.02-0.023,0.016-0.042
	c0.001-0.003,0.002-0.005,0.003-0.01c0.019-0.016,0.029-0.038,0.032-0.063c0.006-0.011,0.011-0.022,0.016-0.032
	c0.002-0.006,0.005-0.011,0.008-0.017c0.003-0.005,0.006-0.011,0.008-0.018c0.003-0.005,0.006-0.011,0.008-0.015
	c0.007-0.013,0.015-0.025,0.022-0.037c0.003-0.004,0.006-0.009,0.009-0.014l0.001-0.002c0.005-0.001,0.009-0.004,0.006-0.011
	c0.003-0.007,0.006-0.014,0.009-0.02c0.003-0.005,0.006-0.011,0.009-0.016c0.009-0.015,0.018-0.029,0.027-0.045
	c0.002-0.005,0.006-0.01,0.01-0.016c0.002-0.001,0.003-0.004,0.004-0.007c0.004-0.006,0.007-0.011,0.01-0.017
	c0.012-0.018,0.024-0.038,0.036-0.058c0.031-0.025,0.049-0.058,0.063-0.096c0.003-0.004,0.007-0.009,0.009-0.013
	c0.015-0.008,0.022-0.021,0.024-0.037l0,0c0.003-0.004,0.007-0.008,0.01-0.014c0.005-0.007,0.01-0.014,0.015-0.021
	c0.009-0.002,0.014-0.008,0.015-0.017c0.003-0.006,0.006-0.013,0.009-0.019c0.003-0.005,0.007-0.011,0.01-0.016l0,0
	c0.014-0.002,0.021-0.012,0.02-0.025c0.002-0.002,0.004-0.005,0.005-0.009c0.034-0.031,0.062-0.069,0.08-0.111
	c0.009-0.011,0.019-0.022,0.027-0.034c0.014-0.003,0.021-0.012,0.021-0.025c0.005-0.007,0.011-0.014,0.017-0.021
	c0.017-0.007,0.031-0.018,0.031-0.039c0.01-0.012,0.019-0.021,0.028-0.032c0.005-0.004,0.009-0.008,0.013-0.014
	c0.007-0.007,0.015-0.016,0.022-0.024c0.033-0.019,0.059-0.047,0.075-0.082c0.02-0.02,0.04-0.04,0.059-0.06
	c0.004-0.004,0.008-0.009,0.012-0.015c0.012-0.01,0.024-0.022,0.036-0.034c0.005-0.003,0.009-0.009,0.013-0.012
	c0.004-0.004,0.007-0.008,0.011-0.012c0.026-0.017,0.056-0.03,0.066-0.064c0.008-0.008,0.018-0.017,0.026-0.024
	c0.015,0,0.022-0.008,0.027-0.021c0.021-0.019,0.041-0.037,0.062-0.057c0.029-0.015,0.056-0.031,0.072-0.063
	c0.006-0.005,0.013-0.011,0.019-0.017c0.015,0.001,0.023-0.006,0.028-0.02c0.017-0.015,0.032-0.03,0.048-0.046
	c0.015-0.004,0.029-0.01,0.036-0.026c0.003-0.001,0.006-0.003,0.008-0.005c0.022,0,0.032-0.015,0.038-0.032
	c0.012-0.009,0.023-0.019,0.034-0.027c0.015,0,0.022-0.006,0.027-0.02l0,0c0.023-0.003,0.041-0.014,0.05-0.035
	c0.015-0.013,0.031-0.024,0.046-0.037c0.017-0.001,0.031-0.006,0.037-0.024c0.007-0.005,0.015-0.01,0.021-0.016
	c0.038-0.017,0.074-0.034,0.1-0.067c0.003-0.001,0.006-0.003,0.007-0.005c0.06-0.025,0.115-0.058,0.162-0.103
	c0.011-0.006,0.021-0.011,0.032-0.016c0.017-0.001,0.029-0.009,0.039-0.021c0.011-0.007,0.021-0.013,0.032-0.018
	c0.023,0,0.038-0.016,0.052-0.031c0.011-0.006,0.021-0.01,0.033-0.015c0.016-0.001,0.03-0.008,0.04-0.021
	c0.003-0.001,0.006-0.002,0.009-0.002c0.017,0,0.032-0.004,0.04-0.022c0.006-0.001,0.012-0.004,0.018-0.007
	c0.032-0.003,0.06-0.018,0.086-0.034c0.008-0.002,0.017-0.005,0.024-0.008c0.005-0.003,0.011-0.007,0.016-0.01
	c0.003-0.001,0.005-0.002,0.008-0.005c0.063-0.012,0.124-0.028,0.18-0.063c0.007-0.002,0.015-0.003,0.022-0.005
	c0.01,0.005,0.019,0.002,0.025-0.006c0.008-0.002,0.015-0.004,0.022-0.006c0.011,0.006,0.019,0.003,0.026-0.006
	c0.013-0.003,0.024-0.006,0.038-0.008c0.017,0,0.034,0,0.046-0.015c0.011-0.003,0.023-0.006,0.035-0.007
	c0.013,0.007,0.023,0,0.031-0.009c0.01-0.002,0.021-0.003,0.03-0.005c0.014,0.011,0.025,0.006,0.036-0.006
	c0.007-0.001,0.015-0.003,0.023-0.003c0.018,0.006,0.035,0.006,0.049-0.009c0.028-0.002,0.056-0.004,0.085-0.006
	c0.021,0.01,0.041,0.01,0.06-0.005c0.092-0.005,0.184-0.01,0.277-0.003c0.043,0.024,0.089,0.018,0.134,0.009
	c0.011,0.001,0.023,0.003,0.034,0.005c0.014,0.015,0.03,0.017,0.048,0.006c0.016,0.003,0.032,0.005,0.048,0.006
	c0.01,0.012,0.022,0.015,0.037,0.007c0.008,0.002,0.015,0.004,0.022,0.005c0.007,0.009,0.015,0.013,0.026,0.007
	c0.011,0.002,0.023,0.004,0.034,0.006c0.007,0.009,0.015,0.011,0.025,0.007c0.007,0.002,0.016,0.004,0.023,0.006
	c0.083,0.03,0.166,0.063,0.253,0.079c0.014,0.006,0.028,0.009,0.041,0.015c0.005,0.001,0.011,0.004,0.016,0.006
	c0.002,0.003,0.005,0.003,0.008,0.004c0.011,0.014,0.025,0.019,0.042,0.018c0.002,0.002,0.005,0.003,0.008,0.005
	c0.013,0.019,0.031,0.026,0.053,0.027c0.007,0.002,0.013,0.005,0.021,0.007c0.005,0.011,0.014,0.013,0.024,0.012h0.001
	c0.005,0.011,0.014,0.012,0.023,0.012l0,0c0.005,0.01,0.015,0.013,0.023,0.014c0.008,0.003,0.016,0.008,0.024,0.012
	c0.059,0.042,0.116,0.087,0.184,0.115c0.002,0.003,0.005,0.004,0.008,0.005c0.004,0.014,0.014,0.02,0.028,0.02
	c0.002,0.002,0.005,0.003,0.007,0.004c0.005,0.004,0.01,0.008,0.015,0.012l0,0c0.004,0.003,0.009,0.007,0.014,0.011l0,0
	c0.052,0.057,0.111,0.105,0.181,0.142c0.005,0.004,0.009,0.009,0.014,0.013c0.02,0.049,0.065,0.068,0.106,0.095
	c0.006,0.006,0.013,0.012,0.02,0.017c0.003,0.006,0.008,0.01,0.012,0.014c0.012,0.012,0.023,0.024,0.035,0.035
	c0.004,0.004,0.009,0.008,0.014,0.013c0.007,0.008,0.016,0.016,0.023,0.023c0.004,0.004,0.008,0.009,0.012,0.012h0
	c0.003,0.005,0.008,0.009,0.012,0.012v0.001c0.013,0.039,0.038,0.065,0.076,0.079h0.001c0,0.016,0.008,0.023,0.023,0.025l0,0
	c0.008,0.03,0.032,0.048,0.057,0.063c0.013,0.016,0.025,0.031,0.039,0.046C165.842,204.674,165.88,204.705,165.92,204.734z"/>
</svg>
